<svg width="24" height="24" viewBox="0 0 24 24" fill="none" xmlns="http://www.w3.org/2000/svg">
<path d="M12 3.5C13.28 3.5 14.317 4.53745 14.3174 5.81738C14.3174 6.05823 14.2811 6.29137 14.2129 6.50977C14.6332 6.08316 15.2171 5.81748 15.8633 5.81738C17.1436 5.81738 18.1826 6.85642 18.1826 8.13672C18.1825 8.78331 17.9154 9.36673 17.4883 9.78711C17.7072 9.71862 17.9412 9.68262 18.1826 9.68262C19.4625 9.68305 20.4999 10.7201 20.5 12C20.5 13.28 19.4625 14.3179 18.1826 14.3184C17.9426 14.3184 17.71 14.2826 17.4922 14.2148C17.9175 14.635 18.1825 15.2182 18.1826 15.8633C18.1824 17.1434 17.1434 18.1816 15.8633 18.1816C15.2165 18.1815 14.6323 17.9155 14.2119 17.4883C14.2805 17.7072 14.3174 17.9411 14.3174 18.1826C14.317 19.4625 13.28 20.5 12 20.5C10.72 20.5 9.68305 19.4625 9.68262 18.1826C9.68262 17.9416 9.71785 17.7078 9.78613 17.4893C9.36578 17.9159 8.78292 18.1825 8.13672 18.1826C6.85642 18.1826 5.81738 17.1436 5.81738 15.8633C5.81753 15.2167 6.08364 14.6323 6.51074 14.2119C6.29204 14.2803 6.05862 14.3174 5.81738 14.3174C4.53752 14.317 3.5001 13.2799 3.5 12C3.5 10.72 4.53745 9.68207 5.81738 9.68164C6.05703 9.68164 6.28939 9.71667 6.50684 9.78418C6.08214 9.36405 5.81746 8.78129 5.81738 8.13672C5.81759 6.8566 6.85655 5.81836 8.13672 5.81836C8.78298 5.81846 9.36675 6.08406 9.78711 6.51074C9.71878 6.2921 9.68262 6.05854 9.68262 5.81738C9.68305 4.53745 10.72 3.5 12 3.5ZM12 10C10.8954 10 10 10.8954 10 12C10 13.1046 10.8954 14 12 14C13.1046 14 14 13.1046 14 12C14 10.8954 13.1046 10 12 10Z" fill="#3A4052"/>
</svg>
