<svg width="24" height="24" viewBox="0 0 24 24" fill="none" xmlns="http://www.w3.org/2000/svg">
<path d="M18.9999 12.0001C19.5521 12.0001 20.0061 12.4493 19.9374 12.9971C19.8485 13.705 19.6647 14.3997 19.3906 15.0616C18.9885 16.0321 18.4 16.9145 17.6572 17.6573C16.9143 18.4001 16.032 18.9886 15.0615 19.3907C14.3996 19.6648 13.7049 19.8486 12.997 19.9376C12.4492 20.0062 11.9999 19.5522 11.9999 19.0001V13.0001C12 12.4478 12.4477 12.0001 12.9999 12.0001H18.9999Z" fill="#3A4052"/>
<path d="M11.0029 4.06256C11.5507 3.99389 11.9999 4.44789 11.9999 5.00006V11.0001C11.9999 11.5523 11.5522 12.0001 10.9999 12.0001H4.99995C4.44778 12 3.99378 11.5508 4.06245 11.003C4.1514 10.2951 4.33516 9.60043 4.60932 8.93853C5.01136 7.96801 5.59991 7.08564 6.34272 6.34283C7.08554 5.60002 7.96791 5.01147 8.93843 4.60943C9.60032 4.33527 10.295 4.1515 11.0029 4.06256Z" fill="#3A4052"/>
</svg>
