<svg width="24" height="24" viewBox="0 0 24 24" fill="none" xmlns="http://www.w3.org/2000/svg">
<path d="M15 7C15 8.65685 13.6569 10 12 10C10.3431 10 9 8.65685 9 7C9 5.34315 10.3431 4 12 4C13.6569 4 15 5.34315 15 7Z" fill="#3A4052"/>
<path d="M20 11C20 12.6569 18.6569 14 17 14C15.3431 14 14 12.6569 14 11C14 9.34315 15.3431 8 17 8C18.6569 8 20 9.34315 20 11Z" fill="#3A4052"/>
<path d="M18.25 17C18.25 18.6569 16.9069 20 15.25 20C13.5931 20 12.25 18.6569 12.25 17C12.25 15.3431 13.5931 14 15.25 14C16.9069 14 18.25 15.3431 18.25 17Z" fill="#3A4052"/>
<path d="M11.75 17C11.75 18.6569 10.4069 20 8.75 20C7.09315 20 5.75 18.6569 5.75 17C5.75 15.3431 7.09315 14 8.75 14C10.4069 14 11.75 15.3431 11.75 17Z" fill="#3A4052"/>
<path d="M10 11C10 12.6569 8.65685 14 7 14C5.34315 14 4 12.6569 4 11C4 9.34315 5.34315 8 7 8C8.65685 8 10 9.34315 10 11Z" fill="#3A4052"/>
</svg>
