<svg width="24" height="24" viewBox="0 0 24 24" fill="none" xmlns="http://www.w3.org/2000/svg">
<path d="M13.7302 5.07747C15.1642 3.6434 17.4895 3.6435 18.9236 5.07747C20.3574 6.51161 20.3576 8.83678 18.9236 10.2708C17.2894 12 17.2893 12.0003 18.9246 13.7318C20.3584 15.1658 20.3583 17.491 18.9246 18.9251C17.4905 20.3591 15.1652 20.3592 13.7312 18.9251C11.9998 17.2897 11.9997 17.2896 10.2683 18.9261C8.83437 20.3599 6.50993 20.3598 5.07594 18.9261C3.64205 17.492 3.64195 15.1668 5.07594 13.7327C6.71103 12.0004 6.71076 11.9998 5.07692 10.2699C3.64288 8.83573 3.64288 6.50964 5.07692 5.07552C6.51087 3.64223 8.79513 3.68354 10.2693 5.07552C11.9995 6.70976 12.0001 6.71156 13.7302 5.07747ZM11.9998 9.99935C10.8954 9.99949 9.99989 10.895 9.99977 11.9993C9.99977 13.1038 10.8953 13.9992 11.9998 13.9993C13.1043 13.9993 13.9998 13.1039 13.9998 11.9993C13.9997 10.8949 13.1043 9.99935 11.9998 9.99935Z" fill="#3A4052"/>
</svg>
