<svg width="24" height="24" viewBox="0 0 24 24" fill="none" xmlns="http://www.w3.org/2000/svg">
<path d="M12 4C16.4183 4 20 5.34315 20 7C20 8.04406 18.5775 8.96266 16.4199 9.5C18.5775 10.0373 20 10.9559 20 12C20 13.0441 18.5775 13.9627 16.4199 14.5C18.5775 15.0373 20 15.9559 20 17C20 18.6569 16.4183 20 12 20C7.58172 20 4 18.6569 4 17C4 15.9561 5.42201 15.0374 7.5791 14.5C5.42201 13.9626 4 13.0439 4 12C4 10.9561 5.42201 10.0374 7.5791 9.5C5.42201 8.96263 4 8.04391 4 7C4 5.34315 7.58172 4 12 4Z" fill="#3A4052"/>
</svg>
