<svg width="24" height="24" viewBox="0 0 24 24" fill="none" xmlns="http://www.w3.org/2000/svg">
<path fill-rule="evenodd" clip-rule="evenodd" d="M15.2078 4.30949C15.6205 3.89685 16.2894 3.89683 16.702 4.30949L19.6905 7.29801C20.1032 7.71067 20.1031 8.3796 19.6905 8.79227L16.702 11.7818C16.6069 11.8769 16.4972 11.9483 16.3811 11.9996C16.4974 12.0509 16.6068 12.1231 16.702 12.2183L19.6905 15.2069C20.1032 15.6195 20.1031 16.2885 19.6905 16.7011L16.702 19.6907C16.2894 20.1031 15.6204 20.1031 15.2078 19.6907L12.2193 16.7011C12.1239 16.6057 12.0508 16.4967 11.9995 16.3802C11.9482 16.4965 11.876 16.6058 11.7807 16.7011L8.79223 19.6907C8.37963 20.1031 7.71062 20.1031 7.29799 19.6907L4.3095 16.7011C3.89683 16.2885 3.89683 15.6195 4.3095 15.2069L7.29799 12.2183C7.39304 12.1233 7.50191 12.0508 7.61789 11.9996C7.50208 11.9484 7.39292 11.8767 7.29799 11.7818L4.3095 8.79227C3.89683 8.3796 3.89683 7.71068 4.3095 7.29801L7.29799 4.30949C7.71066 3.89685 8.37958 3.89683 8.79223 4.30949L11.7807 7.29801C11.8759 7.39319 11.9482 7.50278 11.9995 7.61895C12.0508 7.50266 12.124 7.39328 12.2193 7.29801L15.2078 4.30949ZM11.9995 8.47134C11.9482 8.58769 11.876 8.69696 11.7807 8.79227L8.79223 11.7818C8.69708 11.8769 8.58742 11.9483 8.4713 11.9996C8.58757 12.0509 8.69698 12.1231 8.79223 12.2183L11.7807 15.2069C11.8759 15.302 11.9482 15.4116 11.9995 15.5278C12.0508 15.4115 12.124 15.3021 12.2193 15.2069L15.2078 12.2183C15.3028 12.1233 15.4117 12.0508 15.5277 11.9996C15.4119 11.9484 15.3027 11.8767 15.2078 11.7818L12.2193 8.79227C12.1239 8.69686 12.0508 8.58782 11.9995 8.47134Z" fill="#3A4052"/>
</svg>
