<svg width="24" height="24" viewBox="0 0 24 24" fill="none" xmlns="http://www.w3.org/2000/svg">
<path d="M6 16C7.10457 16 8 16.8954 8 18C8 19.1046 7.10457 20 6 20C4.89543 20 4 19.1046 4 18C4 16.8954 4.89543 16 6 16ZM8 4C10.2091 4 12 5.79086 12 8C12 8.11718 11.9933 8.23304 11.9834 8.34766C12.6137 8.12277 13.2925 8 14 8C17.3137 8 20 10.6863 20 14C20 17.3137 17.3137 20 14 20C10.6863 20 8 17.3137 8 14C8 13.2925 8.12277 12.6137 8.34766 11.9834C8.23304 11.9933 8.11718 12 8 12C5.79086 12 4 10.2091 4 8C4 5.79086 5.79086 4 8 4ZM18 4C19.1046 4 20 4.89543 20 6C20 7.10457 19.1046 8 18 8C16.8954 8 16 7.10457 16 6C16 4.89543 16.8954 4 18 4Z" fill="#3A4052"/>
</svg>
