<svg width="24" height="24" viewBox="0 0 24 24" fill="none" xmlns="http://www.w3.org/2000/svg">
<path d="M9.80991 8.2881C7.41185 1.90392 16.5573 1.90401 14.2152 8.2881C18.844 3.13798 23.3609 10.7563 16.4457 11.9902C23.361 13.2778 18.7882 20.8418 14.2152 15.6914C16.5575 22.1293 7.4676 22.0757 9.80991 15.6914C5.18113 20.8417 0.663463 13.278 7.57847 11.9902C0.607584 10.7563 5.18112 3.19149 9.80991 8.2881ZM12.0003 10C10.8958 10 10.0004 10.8955 10.0003 12C10.0003 13.1046 10.8958 14 12.0003 14C13.1048 13.9998 14.0003 13.1045 14.0003 12C14.0003 10.8956 13.1047 10.0002 12.0003 10Z" fill="#3A4052"/>
</svg>
