<svg width="34" height="34" viewBox="0 0 34 34" fill="none" xmlns="http://www.w3.org/2000/svg">
<path d="M28.7398 13H5.26016C5.11642 13 5 12.8914 5 12.7575V12.4543C5 9.4545 8.80488 7 12.0244 7H23.1463C26.3659 7 29 9.4545 29 12.4543V12.7575C29 12.8914 28.8836 13 28.7398 13Z" fill="#22252F"/>
<path d="M28.7073 20H12.6098C9.39024 20 5 17.4285 5 14.2858C5 14.1279 5.13106 14 5.29268 14H21.3902C24.6098 14 29 16.5715 29 19.7142C29 19.8721 28.8689 20 28.7073 20Z" fill="#22252F"/>
<path d="M21.9756 27H10.8537C7.63415 27 5 24.5455 5 21.5457V21.2425C5 21.1086 5.11642 21 5.26016 21H28.7398C28.8836 21 29 21.1086 29 21.2425V21.5457C29 24.5455 25.1951 27 21.9756 27Z" fill="#22252F"/>
</svg>
