<svg width="24" height="24" viewBox="0 0 24 24" fill="none" xmlns="http://www.w3.org/2000/svg">
<path d="M8.99963 15.5C6.49963 15.5 3.99963 10.5 5.49982 6.5L10.7088 6.49999H16.5302C17.9996 9.99999 15.4996 15.5 12.9996 15.5L10.9996 15.5L8.99963 15.5Z" fill="#181818"/>
<path d="M5.50019 18H17M5.49982 6.5C3.99963 10.5 6.49963 15.5 8.99963 15.5L10.9996 15.5L12.9996 15.5C15.4996 15.5 17.9996 9.99999 16.5302 6.49999H10.7088L5.49982 6.5Z" stroke="#181818" stroke-linecap="round" stroke-linejoin="round"/>
<path d="M17 9.86694C17 9.86694 18.1745 9.04139 19 9.86684C19.8255 10.6923 19.5 12.3669 18.5 12.8669C17.5 13.3669 16.5 12.8669 16.5 12.8669" stroke="#181818" stroke-linecap="round" stroke-linejoin="round"/>
</svg>
