<svg width="24" height="24" viewBox="0 0 24 24" fill="none" xmlns="http://www.w3.org/2000/svg">
<path d="M11.9914 16.7618V19M11.9914 16.7618C14.1444 16.8041 18.5 15.2362 18.5 12.4736C18.5 12.1894 18.4837 11.8929 18.4539 11.5887M11.9914 16.7618C9.64601 16.7157 5.5 15.4372 5.5 12.4747C5.5 12.1892 5.51588 11.8929 5.5448 11.5898M7.49661 19H16.4859M5.5448 11.5898C5.84032 8.4934 8.99499 5 8.99499 5H14.9878C14.9878 5 18.155 8.52979 18.4539 11.5887M5.5448 11.5898C5.5448 11.5898 7.49762 10.1852 8.99583 10.1852C10.494 10.1852 11.492 12.2593 12.9902 12.2593C14.4884 12.2593 14.4893 10.7037 15.9875 10.7037C17.4857 10.7037 18.4539 11.5887 18.4539 11.5887" stroke="#181818" stroke-linecap="round" stroke-linejoin="round"/>
<path d="M5.5 12.4751C5.5 12.1896 5.51588 11.8932 5.5448 11.5902C5.5448 11.5902 7.49762 10.1855 8.99583 10.1855C10.494 10.1855 11.492 12.2596 12.9902 12.2596C14.4884 12.2596 14.4893 10.7041 15.9875 10.7041C17.4857 10.7041 18.4539 11.5891 18.4539 11.5891C18.4837 11.8932 18.5 12.1897 18.5 12.474C18.5 15.2365 14.1444 16.8045 11.9914 16.7622C9.64601 16.7161 5.5 15.4376 5.5 12.4751Z" fill="#181818" stroke="#181818" stroke-linecap="round" stroke-linejoin="round"/>
</svg>
