<svg width="24" height="24" viewBox="0 0 24 24" fill="none" xmlns="http://www.w3.org/2000/svg">
<path d="M9 9.49998C11.5 6.99998 17 8 18.5 5C18.5 5 20 12 17.5 14.5C15 17 9.5 16.5 9 16C8.5 15.5 6.5 12 9 9.49998Z" fill="#181818"/>
<path d="M9 16C8.5 15.5 6.5 12 9 9.49998C11.5 6.99998 17 8 18.5 5C18.5 5 20 12 17.5 14.5C15 17 9.5 16.5 9 16ZM9 16C10 14 13.5 11.5 14.5 11M9 16C7 18.5 5 19 5 19" stroke="#181818" stroke-linecap="round" stroke-linejoin="round"/>
<path d="M9 16C10 14 13.5 11.5 14.5 11" stroke="#ABCCC2" stroke-linecap="round" stroke-linejoin="round"/>
</svg>
