<svg width="24" height="24" viewBox="0 0 24 24" fill="none" xmlns="http://www.w3.org/2000/svg">
<rect x="2.5" y="2.5" width="19" height="19" rx="9.5" fill="#E4A9CF"/>
<rect x="2.5" y="2.5" width="19" height="19" rx="9.5" stroke="#8F3973"/>
<path d="M6.99996 12.0007C7.333 10.334 8.66631 8.33398 9.66651 8.33398C10.6667 8.33398 11 9.33398 12 9.33398C13 9.33398 13.3334 8.33398 14.3332 8.33398C15.333 8.33398 16.6666 10.334 17 12.0007C17.3333 13.6673 16.6667 16.0006 15 16.0006C13.3334 16.0006 13.6667 14.334 13.3334 14.0007C13 13.6673 11 13.6673 10.6667 14.0007C10.3334 14.334 10.6667 16.0006 9.00005 16.0006C7.33338 16.0006 6.66691 13.6673 6.99996 12.0007Z" fill="#181818" stroke="#181818" stroke-width="0.75" stroke-linecap="round" stroke-linejoin="round"/>
<path d="M9.33337 11L10.6667 12.3333M10.6667 11L9.33337 12.3333" stroke="#E4A9CF" stroke-width="0.75" stroke-linecap="round" stroke-linejoin="round"/>
<circle cx="13.6667" cy="11.6654" r="0.333333" fill="#E4A9CF"/>
<circle cx="14.3333" cy="10.9993" r="0.333333" fill="#E4A9CF"/>
<circle cx="14.3333" cy="12.3333" r="0.333333" fill="#E4A9CF"/>
<circle cx="15" cy="11.6654" r="0.333333" fill="#E4A9CF"/>
</svg>
