<svg width="24" height="24" viewBox="0 0 24 24" fill="none" xmlns="http://www.w3.org/2000/svg">
<rect x="2.5" y="2.5" width="19" height="19" rx="9.5" fill="#D2D2E8"/>
<rect x="2.5" y="2.5" width="19" height="19" rx="9.5" stroke="#444574"/>
<path d="M16.6667 11.6671C16.6667 9.9298 14 6.66708 14 7.66709V13.3337C14 13.3337 16.6667 13.4044 16.6667 11.6671Z" fill="#181818"/>
<path d="M8.00003 7.66709C8.00003 7.66709 7.66656 10.6671 8.66663 11.6671C9.66671 12.6671 10.3332 12.6671 11.3334 11.6671C12.3335 10.6671 12.0001 7.66709 12.0001 7.66709M10 7.66709V12.0004V16.3338M14 16.3338V13.3337M14 13.3337V7.66709C14 6.66708 16.6667 9.9298 16.6667 11.6671C16.6667 13.4044 14 13.3337 14 13.3337Z" stroke="#181818" stroke-width="0.75" stroke-linecap="round" stroke-linejoin="round"/>
</svg>
