<svg width="44" height="44" viewBox="0 0 44 44" fill="none" xmlns="http://www.w3.org/2000/svg">
<g filter="url(#filter0_d_1416_22987)">
<path d="M23.7321 33C22.9623 34.3333 21.0377 34.3333 20.2679 33L19.4019 31.5C18.6321 30.1667 19.5944 28.5 21.134 28.5L22.866 28.5C24.4056 28.5 25.3679 30.1667 24.5981 31.5L23.7321 33Z" fill="#8691AA"/>
<rect x="10.4" y="7.4" width="23.2" height="23.2" rx="11.6" fill="#3A4052"/>
<rect x="10.4" y="7.4" width="23.2" height="23.2" rx="11.6" stroke="#8691AA" stroke-width="0.8"/>
<path d="M24 15.334C22.5714 15.334 22 18.334 22 18.334C22 18.334 21.4286 15.334 20 15.334C19 15.334 18 16.334 18 17.6673C18 20.7229 22 22.6673 22 22.6673C22 22.6673 26 20.7229 26 17.6673C26 16.334 25 15.334 24 15.334Z" fill="#FCFCFC"/>
<path d="M22.866 32.5C22.4811 33.1667 21.5189 33.1667 21.134 32.5L18.5359 28C18.151 27.3333 18.6321 26.5 19.4019 26.5L24.5981 26.5C25.3679 26.5 25.849 27.3333 25.4641 28L22.866 32.5Z" fill="#3A4052"/>
</g>
<defs>
<filter id="filter0_d_1416_22987" x="-2" y="0" width="48" height="48" filterUnits="userSpaceOnUse" color-interpolation-filters="sRGB">
<feFlood flood-opacity="0" result="BackgroundImageFix"/>
<feColorMatrix in="SourceAlpha" type="matrix" values="0 0 0 0 0 0 0 0 0 0 0 0 0 0 0 0 0 0 127 0" result="hardAlpha"/>
<feOffset dy="2"/>
<feGaussianBlur stdDeviation="1"/>
<feComposite in2="hardAlpha" operator="out"/>
<feColorMatrix type="matrix" values="0 0 0 0 0.0705882 0 0 0 0 0.0705882 0 0 0 0 0.0705882 0 0 0 0.2 0"/>
<feBlend mode="normal" in2="BackgroundImageFix" result="effect1_dropShadow_1416_22987"/>
<feBlend mode="normal" in="SourceGraphic" in2="effect1_dropShadow_1416_22987" result="shape"/>
</filter>
</defs>
</svg>
