<svg width="24" height="24" viewBox="0 0 24 24" fill="none" xmlns="http://www.w3.org/2000/svg">
<rect x="2.5" y="2.5" width="19" height="19" rx="9.5" fill="#ABCCC2"/>
<rect x="2.5" y="2.5" width="19" height="19" rx="9.5" stroke="#678179"/>
<path d="M10 10.334C11.6667 8.66731 15.6667 9.33398 16.6667 7.33398C16.6667 7.33398 17.6667 12.0007 16 13.6673C14.3334 15.334 10.3334 15.0006 10 14.6673C9.66671 14.334 8.33337 12.0006 10 10.334Z" fill="#181818"/>
<path d="M10 14.6673C9.66671 14.334 8.33337 12.0006 10 10.334C11.6667 8.66731 15.6667 9.33398 16.6667 7.33398C16.6667 7.33398 17.6667 12.0007 16 13.6673C14.3334 15.334 10.3334 15.0006 10 14.6673ZM10 14.6673C10.6667 13.334 13 11.6673 13.6667 11.334M10 14.6673C8.66671 16.334 7.33337 16.6673 7.33337 16.6673" stroke="#181818" stroke-width="0.75" stroke-linecap="round" stroke-linejoin="round"/>
<path d="M10 14.6673C10.6667 13.334 13 11.6673 13.6667 11.334" stroke="#ABCCC2" stroke-width="0.75" stroke-linecap="round" stroke-linejoin="round"/>
</svg>
