<svg width="32" height="32" viewBox="0 0 32 32" fill="none" xmlns="http://www.w3.org/2000/svg">
<rect width="32" height="32" rx="4" fill="#3A4052" fill-opacity="0.1"/>
<mask id="path-2-inside-1_649_75548" fill="white">
<path fill-rule="evenodd" clip-rule="evenodd" d="M16 9C12.5 9 10 11.5 10 15C10 20 16 23.5 16 23.5C16 23.5 22 19.5 22 15C22 11.5 19.5 9 16 9ZM16 18C17.6569 18 19 16.6569 19 15C19 13.3431 17.6569 12 16 12C14.3431 12 13 13.3431 13 15C13 16.6569 14.3431 18 16 18Z"/>
</mask>
<path fill-rule="evenodd" clip-rule="evenodd" d="M16 9C12.5 9 10 11.5 10 15C10 20 16 23.5 16 23.5C16 23.5 22 19.5 22 15C22 11.5 19.5 9 16 9ZM16 18C17.6569 18 19 16.6569 19 15C19 13.3431 17.6569 12 16 12C14.3431 12 13 13.3431 13 15C13 16.6569 14.3431 18 16 18Z" fill="#8691AA"/>
<path d="M16 23.5L15.4961 24.3638L16.0353 24.6783L16.5547 24.3321L16 23.5ZM10 15H11C11 12.0523 13.0523 10 16 10V9V8C11.9477 8 9 10.9477 9 15H10ZM16 23.5C16.5039 22.6362 16.5041 22.6364 16.5043 22.6365C16.5044 22.6365 16.5046 22.6366 16.5046 22.6367C16.5048 22.6368 16.5049 22.6368 16.5049 22.6368C16.5049 22.6368 16.5045 22.6366 16.5038 22.6362C16.5023 22.6353 16.4995 22.6336 16.4952 22.6311C16.4868 22.6261 16.473 22.6177 16.4541 22.6062C16.4162 22.5831 16.3582 22.5471 16.2829 22.4987C16.1322 22.4018 15.9129 22.2557 15.648 22.0643C15.1163 21.6804 14.4099 21.1207 13.7071 20.4179C12.272 18.9828 11 17.101 11 15H10H9C9 17.899 10.728 20.2672 12.2929 21.8321C13.0901 22.6293 13.8837 23.2571 14.477 23.6857C14.7746 23.9006 15.024 24.067 15.2014 24.181C15.2902 24.2381 15.3611 24.2822 15.4112 24.3128C15.4362 24.3281 15.4561 24.34 15.4703 24.3485C15.4775 24.3528 15.4832 24.3562 15.4875 24.3587C15.4897 24.36 15.4915 24.3611 15.4929 24.3619C15.4936 24.3623 15.4943 24.3627 15.4948 24.363C15.4951 24.3632 15.4954 24.3634 15.4955 24.3634C15.4958 24.3636 15.4961 24.3638 16 23.5ZM22 15H21C21 16.839 19.7453 18.7172 18.2786 20.245C17.5683 20.9849 16.8544 21.5951 16.3168 22.0206C16.0488 22.2328 15.8267 22.3975 15.6734 22.5079C15.5968 22.5631 15.5375 22.6046 15.4985 22.6315C15.479 22.645 15.4646 22.6549 15.4556 22.661C15.4511 22.664 15.448 22.6662 15.4462 22.6673C15.4454 22.6679 15.4449 22.6682 15.4447 22.6684C15.4446 22.6684 15.4446 22.6684 15.4447 22.6683C15.4448 22.6683 15.4449 22.6682 15.4449 22.6682C15.4451 22.6681 15.4453 22.6679 16 23.5C16.5547 24.3321 16.5549 24.3319 16.5552 24.3317C16.5553 24.3316 16.5556 24.3315 16.5558 24.3313C16.5563 24.331 16.5568 24.3306 16.5575 24.3302C16.5588 24.3293 16.5604 24.3282 16.5625 24.3268C16.5665 24.3241 16.572 24.3204 16.5788 24.3158C16.5925 24.3065 16.6118 24.2933 16.6362 24.2764C16.6851 24.2426 16.7548 24.1938 16.8422 24.1308C17.0171 24.0049 17.2637 23.8219 17.5582 23.5887C18.1456 23.1237 18.9317 22.4526 19.7214 21.63C21.2547 20.0328 23 17.661 23 15H22ZM16 9V10C18.9477 10 21 12.0523 21 15H22H23C23 10.9477 20.0523 8 16 8V9ZM19 15H18C18 16.1046 17.1046 17 16 17V18V19C18.2091 19 20 17.2091 20 15H19ZM16 12V13C17.1046 13 18 13.8954 18 15H19H20C20 12.7909 18.2091 11 16 11V12ZM13 15H14C14 13.8954 14.8954 13 16 13V12V11C13.7909 11 12 12.7909 12 15H13ZM16 18V17C14.8954 17 14 16.1046 14 15H13H12C12 17.2091 13.7909 19 16 19V18Z" fill="#8691AA" mask="url(#path-2-inside-1_649_75548)"/>
</svg>
