<svg width="32" height="32" viewBox="0 0 32 32" fill="none" xmlns="http://www.w3.org/2000/svg">
<rect width="32" height="32" rx="4" fill="#594070" fill-opacity="0.1"/>
<path d="M15.9914 20.7618V23M15.9914 20.7618C18.1444 20.8041 22.5 19.2362 22.5 16.4736C22.5 16.1894 22.4837 15.8929 22.4539 15.5887M15.9914 20.7618C13.646 20.7157 9.5 19.4372 9.5 16.4747C9.5 16.1892 9.51588 15.8929 9.5448 15.5898M11.4966 23H20.4859M9.5448 15.5898C9.84032 12.4934 12.995 9 12.995 9H18.9878C18.9878 9 22.155 12.5298 22.4539 15.5887M9.5448 15.5898C9.5448 15.5898 11.4976 14.1852 12.9958 14.1852C14.494 14.1852 15.492 16.2593 16.9902 16.2593C18.4884 16.2593 18.4893 14.7037 19.9875 14.7037C21.4857 14.7037 22.4539 15.5887 22.4539 15.5887" stroke="#594070" stroke-linecap="round" stroke-linejoin="round"/>
<path d="M9.5 16.4751C9.5 16.1896 9.51588 15.8932 9.5448 15.5902C9.5448 15.5902 11.4976 14.1855 12.9958 14.1855C14.494 14.1855 15.492 16.2596 16.9902 16.2596C18.4884 16.2596 18.4893 14.7041 19.9875 14.7041C21.4857 14.7041 22.4539 15.5891 22.4539 15.5891C22.4837 15.8932 22.5 16.1897 22.5 16.474C22.5 19.2365 18.1444 20.8045 15.9914 20.7622C13.646 20.7161 9.5 19.4376 9.5 16.4751Z" fill="#594070"/>
</svg>
