<svg width="32" height="32" viewBox="0 0 32 32" fill="none" xmlns="http://www.w3.org/2000/svg">
<rect width="32" height="32" rx="4" fill="#8F3973" fill-opacity="0.1"/>
<path d="M8.49988 16C8.99945 13.5 10.9994 10.5 12.4997 10.5C14 10.5 14.4999 12 15.9999 12C17.4999 12 18 10.5 19.4997 10.5C20.9994 10.5 22.9999 13.5 23.4999 16C23.9999 18.5 23 22 20.5 22C18 22 18.5 19.5 18 19C17.5 18.5 14.5 18.5 14 19C13.5 19.5 14 22 11.5 22C9.00001 22 8.00031 18.5 8.49988 16Z" fill="#8F3973" stroke="#8F3973" stroke-linecap="round" stroke-linejoin="round"/>
<path d="M12 14.5L14 16.5M14 14.5L12 16.5" stroke="#FCFCFC" stroke-linecap="round" stroke-linejoin="round"/>
<circle cx="18.5" cy="15.5" r="0.5" fill="#FCFCFC"/>
<circle cx="19.5" cy="14.5" r="0.5" fill="#FCFCFC"/>
<circle cx="19.5" cy="16.5" r="0.5" fill="#FCFCFC"/>
<circle cx="20.5" cy="15.5" r="0.5" fill="#FCFCFC"/>
</svg>
