<svg width="32" height="32" viewBox="0 0 32 32" fill="none" xmlns="http://www.w3.org/2000/svg">
<rect width="32" height="32" rx="4" fill="#444574" fill-opacity="0.1"/>
<path d="M23 15.5006C23 12.8947 19 8.00062 19 9.50064V18.0006C19 18.0006 23 18.1066 23 15.5006Z" fill="#444574"/>
<path d="M9.99999 9.50063C9.99999 9.50063 9.49978 14.0006 10.9999 15.5006C12.5 17.0006 13.4998 17.0006 15 15.5006C16.5002 14.0006 16.0001 9.50063 16.0001 9.50063M13 9.50063V16.0006V22.5006M19 22.5006V18.0006M19 18.0006V9.50064C19 8.00062 23 12.8947 23 15.5006C23 18.1066 19 18.0006 19 18.0006Z" stroke="#444574" stroke-linecap="round" stroke-linejoin="round"/>
</svg>
