<svg width="32" height="32" viewBox="0 0 32 32" fill="none" xmlns="http://www.w3.org/2000/svg">
<rect width="32" height="32" rx="4" fill="#4B6B55"/>
<path d="M13.4997 18.916C11.4163 18.916 9.33298 14.7493 10.5831 11.416L14.924 11.416H19.7751C20.9997 14.3327 18.9163 18.916 16.833 18.916L15.1663 18.916L13.4997 18.916Z" fill="#FCFCFC"/>
<path d="M10.5834 20.9994H20.1666M10.5831 11.416C9.33298 14.7493 11.4163 18.916 13.4997 18.916L15.1663 18.916L16.833 18.916C18.9163 18.916 20.9996 14.3327 19.7751 11.416H14.924L10.5831 11.416Z" stroke="#FCFCFC" stroke-linecap="round" stroke-linejoin="round"/>
<path d="M20.1667 14.2218C20.1667 14.2218 21.1454 13.5338 21.8333 14.2217C22.5212 14.9096 22.25 16.3051 21.4167 16.7218C20.5833 17.1384 19.75 16.7218 19.75 16.7218" stroke="#FCFCFC" stroke-linecap="round" stroke-linejoin="round"/>
</svg>
