<svg width="32" height="32" viewBox="0 0 32 32" fill="none" xmlns="http://www.w3.org/2000/svg">
<rect width="32" height="32" rx="4" fill="#594070"/>
<path d="M13.4959 10.166H18.4899C18.4899 10.166 21.1292 13.1075 21.3783 15.6566C21.4031 15.9101 21.4167 16.1571 21.4167 16.394C21.4167 18.6962 17.7871 20.0028 15.9929 19.9675C14.0384 19.9291 10.5834 18.8637 10.5834 16.3949C10.5834 16.1571 10.5966 15.9101 10.6207 15.6575C10.867 13.0772 13.4959 10.166 13.4959 10.166Z" fill="#FCFCFC"/>
<path d="M15.9929 19.9675V21.8327M15.9929 19.9675C17.7871 20.0028 21.4167 18.6962 21.4167 16.394C21.4167 16.1571 21.4031 15.9101 21.3783 15.6566M15.9929 19.9675C14.0384 19.9291 10.5834 18.8637 10.5834 16.3949C10.5834 16.1571 10.5966 15.9101 10.6207 15.6575M12.2472 21.8327H19.7383M10.6207 15.6575C10.867 13.0772 13.4959 10.166 13.4959 10.166H18.4899C18.4899 10.166 21.1292 13.1075 21.3783 15.6566M10.6207 15.6575C10.6207 15.6575 12.2481 14.487 13.4966 14.487C14.7451 14.487 15.5767 16.2154 16.8252 16.2154C18.0737 16.2154 18.0744 14.9191 19.3229 14.9191C20.5715 14.9191 21.3783 15.6566 21.3783 15.6566" stroke="#FCFCFC" stroke-linecap="round" stroke-linejoin="round"/>
<path d="M10.5834 16.3962C10.5834 16.1583 10.5966 15.9114 10.6207 15.6588C10.6207 15.6588 12.2481 14.4883 13.4966 14.4883C14.7451 14.4883 15.5767 16.2167 16.8252 16.2167C18.0737 16.2167 18.0744 14.9204 19.3229 14.9204C20.5715 14.9204 21.3783 15.6579 21.3783 15.6579C21.4031 15.9114 21.4167 16.1584 21.4167 16.3953C21.4167 18.6974 17.7871 20.0041 15.9929 19.9688C14.0384 19.9304 10.5834 18.865 10.5834 16.3962Z" fill="#594070" stroke="#FCFCFC" stroke-linecap="round" stroke-linejoin="round"/>
</svg>
