<svg width="32" height="32" viewBox="0 0 32 32" fill="none" xmlns="http://www.w3.org/2000/svg">
<rect width="32" height="32" rx="4" fill="#8F3973"/>
<path d="M9.74992 15.9993C10.1662 13.916 11.8329 11.416 13.0831 11.416C14.3334 11.416 14.7499 12.666 15.9999 12.666C17.2499 12.666 17.6667 11.416 18.9164 11.416C20.1662 11.416 21.8333 13.916 22.2499 15.9993C22.6666 18.0827 21.8334 20.9993 19.75 20.9993C17.6667 20.9993 18.0834 18.916 17.6667 18.4993C17.25 18.0827 14.75 18.0827 14.3334 18.4993C13.9167 18.916 14.3334 20.9993 12.25 20.9993C10.1667 20.9993 9.33361 18.0827 9.74992 15.9993Z" fill="#FCFCFC" stroke="#FCFCFC" stroke-linecap="round" stroke-linejoin="round"/>
<path d="M12.6666 14.75L14.3333 16.4167M14.3333 14.75L12.6666 16.4167" stroke="#AF425D" stroke-linecap="round" stroke-linejoin="round"/>
<circle cx="18.0833" cy="15.5846" r="0.416667" fill="#AF425D"/>
<circle cx="18.9167" cy="14.7507" r="0.416667" fill="#AF425D"/>
<circle cx="18.9167" cy="16.4167" r="0.416667" fill="#AF425D"/>
<circle cx="19.75" cy="15.5846" r="0.416667" fill="#AF425D"/>
</svg>
