<svg width="32" height="32" viewBox="0 0 32 32" fill="none" xmlns="http://www.w3.org/2000/svg">
<rect width="32" height="32" rx="4" fill="#444574"/>
<path d="M21.8333 15.5829C21.8333 13.4113 18.5 9.33287 18.5 10.5829V17.6662C18.5 17.6662 21.8333 17.7545 21.8333 15.5829Z" fill="#FCFCFC"/>
<path d="M11 10.5829C11 10.5829 10.5831 14.3329 11.8332 15.5829C13.0833 16.8329 13.9164 16.8329 15.1666 15.5829C16.4168 14.3329 16 10.5829 16 10.5829M13.4999 10.5829V15.9995V21.4162M18.5 21.4162V17.6662M18.5 17.6662V10.5829C18.5 9.33287 21.8333 13.4113 21.8333 15.5829C21.8333 17.7545 18.5 17.6662 18.5 17.6662Z" stroke="#FCFCFC" stroke-linecap="round" stroke-linejoin="round"/>
</svg>
