<svg width="32" height="32" viewBox="0 0 32 32" fill="none" xmlns="http://www.w3.org/2000/svg">
<rect width="32" height="32" rx="4" fill="#3A4052"/>
<path d="M19 11C20.1756 11 21.5 12.2253 21.5 14C21.5 16.0697 20.1387 17.8175 18.6719 19.0908C17.9481 19.7191 17.222 20.2118 16.6758 20.5469C16.4034 20.714 16.1765 20.8409 16.0195 20.9258C16.013 20.9293 16.0063 20.9322 16 20.9355C15.9937 20.9322 15.987 20.9293 15.9805 20.9258C15.8235 20.8409 15.5966 20.714 15.3242 20.5469C14.778 20.2118 14.0519 19.7191 13.3281 19.0908C11.8613 17.8175 10.5 16.0697 10.5 14C10.5 12.2253 11.8244 11 13 11C13.3436 11 13.6746 11.1772 14.002 11.5391C14.3309 11.9027 14.6128 12.4085 14.8438 12.9473C15.0724 13.4809 15.2396 14.019 15.3496 14.4268C15.4044 14.6297 15.4444 14.7989 15.4707 14.916C15.4838 14.9745 15.4937 15.0205 15.5 15.0508C15.5031 15.0656 15.5054 15.0767 15.5068 15.084C15.5075 15.0874 15.5085 15.0902 15.5088 15.0918V15.0938C15.5538 15.3295 15.76 15.5 16 15.5C16.24 15.5 16.4462 15.3295 16.4912 15.0938V15.0918C16.4915 15.0902 16.4925 15.0874 16.4932 15.084C16.4946 15.0767 16.4969 15.0656 16.5 15.0508C16.5063 15.0205 16.5162 14.9745 16.5293 14.916C16.5556 14.7989 16.5956 14.6297 16.6504 14.4268C16.7604 14.019 16.9276 13.4809 17.1562 12.9473C17.3872 12.4085 17.6691 11.9027 17.998 11.5391C18.3254 11.1772 18.6564 11 19 11Z" fill="#FCFCFC" stroke="#FCFCFC" stroke-linejoin="round"/>
</svg>
