<svg width="32" height="32" viewBox="0 0 32 32" fill="none" xmlns="http://www.w3.org/2000/svg">
<rect width="32" height="32" rx="4" fill="#678179"/>
<path d="M13.5 13.916C15.5833 11.8327 20.5833 12.666 21.8333 10.166C21.8333 10.166 23.0833 15.9993 21 18.0827C18.9166 20.166 13.9166 19.7493 13.5 19.3327C13.0833 18.916 11.4166 15.9993 13.5 13.916Z" fill="#FCFCFC"/>
<path d="M13.5 19.3327C13.0833 18.916 11.4166 15.9993 13.5 13.916C15.5833 11.8327 20.5833 12.666 21.8333 10.166C21.8333 10.166 23.0833 15.9993 21 18.0827C18.9166 20.166 13.9166 19.7493 13.5 19.3327ZM13.5 19.3327C14.3333 17.666 17.25 15.5827 18.0833 15.166M13.5 19.3327C11.8333 21.416 10.1666 21.8327 10.1666 21.8327" stroke="#FCFCFC" stroke-linecap="round" stroke-linejoin="round"/>
<path d="M13.5 19.3327C14.3333 17.666 17.25 15.5827 18.0833 15.166" stroke="#678179" stroke-linecap="round" stroke-linejoin="round"/>
</svg>
