<svg width="16" height="16" viewBox="0 0 16 16" fill="none" xmlns="http://www.w3.org/2000/svg">
<g id="category-icon">
<g id="Vector 2">
<path d="M5.99979 10.334C4.33313 10.334 2.66646 7.00065 3.66659 4.33398L7.13924 4.33398H11.0202C11.9998 6.66731 10.3331 10.334 8.66646 10.334L7.33313 10.334L5.99979 10.334Z" fill="#181818"/>
<path d="M3.66683 12.0007H11.3334M3.66659 4.33398C2.66646 7.00065 4.33313 10.334 5.99979 10.334L7.33313 10.334L8.66646 10.334C10.3331 10.334 11.9998 6.66731 11.0202 4.33398H7.13924L3.66659 4.33398Z" stroke="#181818" stroke-width="0.75" stroke-linecap="round" stroke-linejoin="round"/>
</g>
<path id="Vector 7" d="M11.3333 6.57861C11.3333 6.57861 12.1163 6.02825 12.6667 6.57854C13.217 7.12884 13 8.24523 12.3333 8.57857C11.6667 8.91192 11 8.57857 11 8.57857" stroke="#181818" stroke-width="0.75" stroke-linecap="round" stroke-linejoin="round"/>
</g>
</svg>
