<svg width="16" height="16" viewBox="0 0 16 16" fill="none" xmlns="http://www.w3.org/2000/svg">
<g id="category-icon">
<path id="Vector 4" d="M7.99423 11.1732V12.6654M7.99423 11.1732C9.42958 11.2015 12.3333 10.1561 12.3333 8.31446C12.3333 8.12493 12.3224 7.92728 12.3026 7.72452M7.99423 11.1732C6.43063 11.1425 3.66663 10.2902 3.66663 8.31516C3.66663 8.12486 3.67721 7.92728 3.6965 7.72523M4.9977 12.6654H10.9905M3.6965 7.72523C3.8935 5.66096 5.99662 3.33203 5.99662 3.33203H9.99185C9.99185 3.33203 12.1033 5.68523 12.3026 7.72452M3.6965 7.72523C3.6965 7.72523 4.99837 6.78882 5.99718 6.78882C6.99598 6.78882 7.6613 8.17154 8.6601 8.17154C9.65891 8.17154 9.65947 7.1345 10.6583 7.1345C11.6571 7.1345 12.3026 7.72452 12.3026 7.72452" stroke="#181818" stroke-width="0.75" stroke-linecap="round" stroke-linejoin="round"/>
<path id="Vector 4_2" d="M3.66663 8.3154C3.66663 8.1251 3.67721 7.92752 3.6965 7.72547C3.6965 7.72547 4.99837 6.78906 5.99718 6.78906C6.99599 6.78906 7.6613 8.17178 8.6601 8.17178C9.65891 8.17178 9.65947 7.13474 10.6583 7.13474C11.6571 7.13474 12.3026 7.72476 12.3026 7.72476C12.3224 7.92752 12.3333 8.12517 12.3333 8.3147C12.3333 10.1564 9.42958 11.2017 7.99423 11.1735C6.43063 11.1428 3.66663 10.2904 3.66663 8.3154Z" fill="#181818"/>
</g>
</svg>
