<svg width="16" height="16" viewBox="0 0 16 16" fill="none" xmlns="http://www.w3.org/2000/svg">
<path d="M2.99996 8.00065C3.333 6.33398 4.66631 4.33398 5.66651 4.33398C6.66671 4.33398 6.99996 5.33398 7.99996 5.33398C8.99996 5.33398 9.33338 4.33398 10.3332 4.33398C11.333 4.33398 12.6666 6.33398 13 8.00065C13.3333 9.66732 12.6667 12.0006 11 12.0006C9.33338 12.0006 9.66671 10.334 9.33338 10.0007C9.00005 9.66732 7.00005 9.66732 6.66671 10.0007C6.33338 10.334 6.66671 12.0006 5.00005 12.0006C3.33338 12.0006 2.66691 9.66732 2.99996 8.00065Z" fill="#181818" stroke="#181818" stroke-width="0.75" stroke-linecap="round" stroke-linejoin="round"/>
<path d="M5.33337 7L6.66671 8.33333M6.66671 7L5.33337 8.33333" stroke="#E4A9CF" stroke-width="0.75" stroke-linecap="round" stroke-linejoin="round"/>
<circle cx="9.66671" cy="7.66536" r="0.333333" fill="#E4A9CF"/>
<circle cx="10.3333" cy="6.99935" r="0.333333" fill="#E4A9CF"/>
<circle cx="10.3333" cy="8.33333" r="0.333333" fill="#E4A9CF"/>
<circle cx="11" cy="7.66536" r="0.333333" fill="#E4A9CF"/>
</svg>
