<svg width="16" height="16" viewBox="0 0 16 16" fill="none" xmlns="http://www.w3.org/2000/svg">
<g id="category-icon">
<g id="Vector 10">
<path d="M6.00004 6.33397C7.66671 4.66731 11.6667 5.33398 12.6667 3.33398C12.6667 3.33398 13.6667 8.00065 12 9.66732C10.3334 11.334 6.33337 11.0006 6.00004 10.6673C5.66671 10.334 4.33337 8.00064 6.00004 6.33397Z" fill="#181818"/>
<path d="M6.00004 10.6673C5.66671 10.334 4.33337 8.00064 6.00004 6.33397C7.66671 4.66731 11.6667 5.33398 12.6667 3.33398C12.6667 3.33398 13.6667 8.00065 12 9.66732C10.3334 11.334 6.33337 11.0006 6.00004 10.6673ZM6.00004 10.6673C6.66671 9.33398 9.00004 7.66732 9.66671 7.33397M6.00004 10.6673C4.66671 12.334 3.33337 12.6673 3.33337 12.6673" stroke="#181818" stroke-width="0.75" stroke-linecap="round" stroke-linejoin="round"/>
</g>
<path id="Vector 11" d="M6 10.6673C6.66667 9.334 9 7.66733 9.66667 7.33398" stroke="#ABCCC2" stroke-width="0.75" stroke-linecap="round" stroke-linejoin="round"/>
</g>
</svg>
