<svg width="24" height="24" viewBox="0 0 24 24" fill="none" xmlns="http://www.w3.org/2000/svg">
<path fill-rule="evenodd" clip-rule="evenodd" d="M12 3C7.625 3 4.5 6.10345 4.5 10.4483C4.5 16.6552 12 21 12 21C12 21 19.5 16.0345 19.5 10.4483C19.5 6.10345 16.375 3 12 3ZM12 14.1724C14.0711 14.1724 15.75 12.5051 15.75 10.4483C15.75 8.39149 14.0711 6.72414 12 6.72414C9.92893 6.72414 8.25 8.39149 8.25 10.4483C8.25 12.5051 9.92893 14.1724 12 14.1724Z" fill="#B0B7C9"/>
<path d="M11.375 8.58621C11.375 8.24341 11.6548 7.96552 12 7.96552C12.3452 7.96552 12.625 8.24341 12.625 8.58621V12.3103C12.625 12.6531 12.3452 12.931 12 12.931C11.6548 12.931 11.375 12.6531 11.375 12.3103V8.58621Z" fill="#B0B7C9"/>
<path d="M13.875 9.82759C14.2202 9.82759 14.5 10.1055 14.5 10.4483C14.5 10.7911 14.2202 11.069 13.875 11.069H10.125C9.77982 11.069 9.5 10.7911 9.5 10.4483C9.5 10.1055 9.77982 9.82759 10.125 9.82759H13.875Z" fill="#B0B7C9"/>
</svg>
