<svg width="48" height="48" viewBox="0 0 48 48" fill="none" xmlns="http://www.w3.org/2000/svg">
<g filter="url(#filter0_d_4469_26554)">
<rect x="8" y="8" width="28" height="28" rx="8" fill="#FCFCFC" shape-rendering="crispEdges"/>
<rect x="8.5" y="8.5" width="27" height="27" rx="7.5" stroke="#ECEEF2" shape-rendering="crispEdges"/>
<path d="M29.3332 24.666C29.1564 24.666 28.9868 24.7363 28.8618 24.8613C28.7368 24.9863 28.6665 25.1559 28.6665 25.3327V26.666C28.6665 27.1964 28.4558 27.7051 28.0807 28.0802C27.7057 28.4552 27.1969 28.6659 26.6665 28.6659H25.3332C25.1564 28.6659 24.9868 28.7362 24.8618 28.8612C24.7367 28.9862 24.6665 29.1558 24.6665 29.3326C24.6665 29.5094 24.7367 29.679 24.8618 29.804C24.9868 29.929 25.1564 29.9992 25.3332 29.9992H26.6665C27.5502 29.9982 28.3975 29.6467 29.0224 29.0218C29.6473 28.3969 29.9988 27.5497 29.9999 26.666V25.3327C29.9999 25.1559 29.9296 24.9863 29.8046 24.8613C29.6796 24.7363 29.51 24.666 29.3332 24.666Z" fill="#677390"/>
<path d="M14.6667 19.3332C14.8435 19.3332 15.013 19.263 15.1381 19.138C15.2631 19.0129 15.3333 18.8434 15.3333 18.6666V17.3333C15.3333 16.8028 15.5441 16.2941 15.9191 15.9191C16.2942 15.544 16.8029 15.3333 17.3333 15.3333H18.6667C18.8435 15.3333 19.0131 15.2631 19.1381 15.138C19.2631 15.013 19.3333 14.8435 19.3333 14.6667C19.3333 14.4898 19.2631 14.3203 19.1381 14.1953C19.0131 14.0702 18.8435 14 18.6667 14H17.3333C16.4496 14.0011 15.6024 14.3526 14.9775 14.9775C14.3526 15.6023 14.0011 16.4496 14 17.3333L14 18.6666C14 18.8434 14.0702 19.0129 14.1953 19.138C14.3203 19.263 14.4899 19.3332 14.6667 19.3332Z" fill="#677390"/>
<path d="M18.6667 28.6659H17.3333C16.8029 28.6659 16.2942 28.4552 15.9191 28.0802C15.5441 27.7051 15.3333 27.1964 15.3333 26.666V25.3327C15.3333 25.1559 15.2631 24.9863 15.1381 24.8613C15.013 24.7363 14.8435 24.666 14.6667 24.666C14.4899 24.666 14.3203 24.7363 14.1953 24.8613C14.0702 24.9863 14 25.1559 14 25.3327V26.666C14.0011 27.5497 14.3526 28.3969 14.9775 29.0218C15.6024 29.6467 16.4496 29.9982 17.3333 29.9992H18.6667C18.8435 29.9992 19.0131 29.929 19.1381 29.804C19.2631 29.679 19.3333 29.5094 19.3333 29.3326C19.3333 29.1558 19.2631 28.9862 19.1381 28.8612C19.0131 28.7362 18.8435 28.6659 18.6667 28.6659Z" fill="#677390"/>
<path d="M26.6665 14H25.3332C25.1564 14 24.9868 14.0702 24.8618 14.1953C24.7367 14.3203 24.6665 14.4898 24.6665 14.6667C24.6665 14.8435 24.7367 15.013 24.8618 15.138C24.9868 15.2631 25.1564 15.3333 25.3332 15.3333H26.6665C27.1969 15.3333 27.7057 15.544 28.0807 15.9191C28.4558 16.2941 28.6665 16.8028 28.6665 17.3333V18.6666C28.6665 18.8434 28.7368 19.0129 28.8618 19.138C28.9868 19.263 29.1564 19.3332 29.3332 19.3332C29.51 19.3332 29.6796 19.263 29.8046 19.138C29.9296 19.0129 29.9999 18.8434 29.9999 18.6666V17.3333C29.9988 16.4496 29.6473 15.6023 29.0224 14.9775C28.3975 14.3526 27.5502 14.0011 26.6665 14Z" fill="#677390"/>
<path d="M26.4712 25.5276L21.4138 20.4703C21.0388 20.0954 20.5302 19.8848 19.9998 19.8848C19.4695 19.8848 18.9609 20.0954 18.5858 20.4703L17.0572 21.999C16.8071 22.2489 16.6666 22.588 16.6665 22.9416V24.6656C16.6665 25.196 16.8772 25.7047 17.2523 26.0798C17.6274 26.4548 18.1361 26.6655 18.6665 26.6655H25.9999C26.1317 26.6655 26.2606 26.6264 26.3702 26.5531C26.4798 26.4799 26.5652 26.3758 26.6156 26.254C26.6661 26.1322 26.6793 25.9982 26.6536 25.8689C26.6279 25.7396 26.5644 25.6208 26.4712 25.5276Z" fill="#677390"/>
<path d="M24.6667 21.0071C25.5871 21.0071 26.3333 20.2609 26.3333 19.3405C26.3333 18.42 25.5871 17.6738 24.6667 17.6738C23.7462 17.6738 23 18.42 23 19.3405C23 20.2609 23.7462 21.0071 24.6667 21.0071Z" fill="#677390"/>
</g>
<defs>
<filter id="filter0_d_4469_26554" x="0" y="0" width="48" height="48" filterUnits="userSpaceOnUse" color-interpolation-filters="sRGB">
<feFlood flood-opacity="0" result="BackgroundImageFix"/>
<feColorMatrix in="SourceAlpha" type="matrix" values="0 0 0 0 0 0 0 0 0 0 0 0 0 0 0 0 0 0 127 0" result="hardAlpha"/>
<feOffset dx="2" dy="2"/>
<feGaussianBlur stdDeviation="5"/>
<feComposite in2="hardAlpha" operator="out"/>
<feColorMatrix type="matrix" values="0 0 0 0 0.0941176 0 0 0 0 0.0941176 0 0 0 0 0.0941176 0 0 0 0.04 0"/>
<feBlend mode="normal" in2="BackgroundImageFix" result="effect1_dropShadow_4469_26554"/>
<feBlend mode="normal" in="SourceGraphic" in2="effect1_dropShadow_4469_26554" result="shape"/>
</filter>
</defs>
</svg>
