<svg width="24" height="24" viewBox="0 0 24 24" fill="none" xmlns="http://www.w3.org/2000/svg">
<path d="M17.25 4.00466C17.9165 3.61983 18.7497 4.10034 18.75 4.8699V16.1287C18.7497 16.8981 17.9165 17.3794 17.25 16.9949L13.7949 14.9998H13V18.9998C12.9998 19.5519 12.5521 19.9998 12 19.9998H9C8.44786 19.9998 8.00024 19.5519 8 18.9998V14.9705C5.75027 14.7217 4.00023 12.8158 4 10.4998C4 8.0145 6.01472 5.99978 8.5 5.99978H13.7939L17.25 4.00466ZM8.5 7.99978C8.22386 7.99978 8 8.22364 8 8.49978V12.4998C8.00012 12.7758 8.22393 12.9998 8.5 12.9998C8.77607 12.9998 8.99988 12.7758 9 12.4998V8.49978C9 8.22364 8.77614 7.99978 8.5 7.99978Z" fill="#B0B7C9"/>
</svg>
