<svg width="24" height="24" viewBox="0 0 24 24" fill="none" xmlns="http://www.w3.org/2000/svg">
<path d="M18.0002 7.66666H16.0001C16.0001 5.5 14.0001 4 12.0001 4C10.0001 4 8.00012 5.5 8.00012 7.66666H6.00015C5.63196 7.66666 5.3335 7.96513 5.3335 8.33331C5.3335 8.7015 5.63196 9 6.00015 9H6.66681V16.6667C6.66903 18.5067 8.16012 19.9978 10.0002 20H14.0002C15.8402 19.9978 17.3313 18.5067 17.3335 16.6667V9H18.0002C18.3683 9 18.6668 8.70153 18.6668 8.33334C18.6668 7.96516 18.3683 7.66666 18.0002 7.66666ZM11.3335 16.1667C11.3335 16.5348 11.035 16.8333 10.6668 16.8333C10.2986 16.8333 10.0002 16.5348 10.0002 16.1667V12.1667C10.0002 11.7985 10.2986 11.5 10.6668 11.5C11.035 11.5 11.3335 11.7985 11.3335 12.1667L11.3335 16.1667ZM14.0002 16.1667C14.0002 16.5348 13.7017 16.8333 13.3335 16.8333C12.9653 16.8333 12.6668 16.5348 12.6668 16.1667V12.1667C12.6668 11.7985 12.9653 11.5 13.3335 11.5C13.7017 11.5 14.0002 11.7985 14.0002 12.1667V16.1667ZM9.50012 7.66666C9.50012 6.5 11.0001 5.5 12.0001 5.5C13.0001 5.5 14.5001 6.5 14.5001 7.66666H9.50012Z" fill="#677390"/>
</svg>
