<svg width="24" height="24" viewBox="0 0 24 24" fill="none" xmlns="http://www.w3.org/2000/svg">
<path d="M12 8.66375V4.30648C12.6087 4.537 13.1687 4.89211 13.6433 5.36581L15.966 7.68836C16.4407 8.16207 16.796 8.72172 17.0267 9.33H12.6667C12.2987 9.33 12 9.03086 12 8.66375ZM11.434 16.6588H7.33333C6.96467 16.6588 6.66667 16.3609 6.66667 15.9925C6.66667 15.6241 6.96467 15.3263 7.33333 15.3263H11.3333V13.9938H7.33333C6.96467 13.9938 6.66667 13.6959 6.66667 13.3275C6.66667 12.9591 6.96467 12.6613 7.33333 12.6613H11.356C11.4667 11.8098 11.982 11.0669 12.7353 10.6625H12.6667C11.564 10.6625 10.6667 9.76573 10.6667 8.66375V4.01599C10.5593 4.00866 10.452 4 10.3433 4H7.33333C5.49533 4 4 5.4944 4 7.33125V16.6588C4 18.4956 5.49533 19.99 7.33333 19.99H13.6527C12.7253 19.2425 11.746 18.1358 11.4347 16.6588H11.434ZM16.722 19.8954C17.4907 19.5863 20 18.3684 20 15.6834V13.007C20 12.4327 19.6327 11.9244 19.0867 11.7438L16.5433 10.901C16.408 10.8557 16.2593 10.8557 16.124 10.901L13.5807 11.7438C13.0347 11.9244 12.6673 12.4327 12.6673 13.007V15.6834C12.6673 18.0619 15.144 19.483 15.9007 19.8608C15.9007 19.8608 16.1173 20 16.3347 20C16.552 20 16.7227 19.8961 16.7227 19.8961L16.722 19.8954Z" fill="#B0B7C9"/>
</svg>
