<svg width="24" height="24" viewBox="0 0 24 24" fill="none" xmlns="http://www.w3.org/2000/svg">
<path d="M20 19.0012C20.2761 19.0012 20.5 19.2251 20.5 19.5012C20.5 19.7774 20.2761 20.0012 20 20.0012H4C3.72386 20.0012 3.5 19.7774 3.5 19.5012C3.5 19.2251 3.72386 19.0012 4 19.0012H20ZM12.5186 7.27954C12.8699 7.35751 13.926 7.64053 14.6602 8.36353C15.3839 9.0755 15.6715 10.0921 15.7539 10.4485C15.2156 11.0419 14.5572 11.7363 13.7598 12.5334C10.4535 15.8376 9.13169 16.7044 9.07715 16.7395C9.00148 16.7882 8.915 16.8173 8.8252 16.8245L6.58789 16.9983C6.57373 16.9999 6.55952 16.9993 6.5459 16.9993C6.40151 16.9993 6.26266 16.9421 6.16016 16.8391C6.04725 16.7255 5.98995 16.5678 6.00195 16.4075L6.17578 14.1731C6.18287 14.082 6.21306 13.9931 6.2627 13.9163C6.3023 13.8556 7.17309 12.5321 10.4717 9.2356C11.2516 8.45608 11.9333 7.81094 12.5186 7.27954ZM15.5957 5.00708C15.6928 5.02245 16.5633 5.17593 17.1943 5.79712C17.822 6.43382 17.9776 7.30583 17.9932 7.40454C18.0139 7.53575 17.9868 7.6709 17.917 7.78345C17.8925 7.82354 17.539 8.38216 16.6025 9.48364C16.3942 8.91271 16.0304 8.17672 15.4229 7.57837C14.8174 6.98223 14.0708 6.62548 13.4932 6.42017C14.6129 5.46723 15.1819 5.10831 15.2236 5.08228C15.3343 5.01315 15.4665 4.98575 15.5957 5.00708Z" fill="#677390"/>
</svg>
