<svg width="24" height="24" viewBox="0 0 24 24" fill="none" xmlns="http://www.w3.org/2000/svg">
<path d="M12.6911 7.03894C13.1594 7.14288 14.5677 7.52035 15.5466 8.48425C16.5116 9.43358 16.8947 10.7894 17.0046 11.2645C16.2868 12.0558 15.4096 12.981 14.3464 14.0438C9.93967 18.4477 8.17732 19.6045 8.10321 19.6522C8.00212 19.7174 7.88629 19.756 7.7663 19.7655L4.78387 19.9969C4.76507 19.9991 4.7463 19.9989 4.72821 19.9989C4.53549 19.9989 4.34931 19.9226 4.21259 19.785C4.06214 19.6335 3.98663 19.4235 4.00262 19.2098L4.23407 16.2303C4.24352 16.1089 4.28322 15.991 4.3493 15.8885C4.39658 15.8161 5.5532 14.0539 9.96259 9.64734C11.0024 8.60805 11.9108 7.74745 12.6911 7.03894ZM16.7946 4.00867C16.9241 4.02916 18.085 4.23475 18.9265 5.06335C19.7635 5.91269 19.9703 7.07531 19.9909 7.20593C20.0185 7.38088 19.9824 7.56076 19.8893 7.71082C19.857 7.7637 19.3858 8.50891 18.1364 9.97839C17.8586 9.21713 17.3743 8.23524 16.5641 7.43738C15.7569 6.64247 14.7611 6.16719 13.9909 5.89343C15.4863 4.62075 16.2451 4.14261 16.2985 4.10925C16.4461 4.01704 16.6223 3.98016 16.7946 4.00867Z" fill="#F6F7F9"/>
</svg>
