<svg width="24" height="24" viewBox="0 0 24 24" fill="none" xmlns="http://www.w3.org/2000/svg">
<path d="M7.99988 10.5L9.99988 12.5M9.99988 10.5L7.99988 12.5M8.49971 6.5C6.9994 6.5 4.99945 9.5 4.49988 12C4.00031 14.5 5.00001 18 7.50001 18C10 18 9.50001 15.5 10 15C10.5 14.5 13.5 14.5 14 15C14.5 15.5 14 18 16.5 18C19 18 19.9999 14.5 19.4999 12C18.9999 9.5 16.9994 6.5 15.4997 6.5C14 6.5 13.4999 8 11.9999 8C10.4999 8 10 6.5 8.49971 6.5Z" stroke="#8F3973" stroke-linecap="round" stroke-linejoin="round"/>
<circle cx="14.5" cy="11.5" r="0.5" fill="#8F3973"/>
<circle cx="15.5" cy="10.5" r="0.5" fill="#8F3973"/>
<circle cx="15.5" cy="12.5" r="0.5" fill="#8F3973"/>
<circle cx="16.5" cy="11.5" r="0.5" fill="#8F3973"/>
</svg>
