<svg width="16" height="16" viewBox="0 0 16 16" fill="none" xmlns="http://www.w3.org/2000/svg">
<path d="M12.9294 9.70591L9.33561 4.03209C9.03316 3.59633 8.53057 3.33398 8.0013 3.33398C7.47202 3.33398 6.96943 3.59188 6.65364 4.04543L3.07769 9.69701C2.62402 10.3462 2.53951 11.1244 2.8553 11.7246C3.16664 12.3249 3.82045 12.6673 4.63883 12.6673H11.3638C12.1866 12.6673 12.836 12.3249 13.1473 11.7246C13.4586 11.1244 13.3741 10.3507 12.9294 9.70591ZM7.55653 6.00192C7.55653 5.75736 7.75667 5.55727 8.0013 5.55727C8.24592 5.55727 8.44607 5.75736 8.44607 6.00192V8.66986C8.44607 8.91442 8.24592 9.11451 8.0013 9.11451C7.75667 9.11451 7.55653 8.91442 7.55653 8.66986V6.00192ZM8.0013 11.3378C7.63214 11.3378 7.33414 11.0399 7.33414 10.6708C7.33414 10.3017 7.63214 10.0038 8.0013 10.0038C8.37046 10.0038 8.66845 10.3017 8.66845 10.6708C8.66845 11.0399 8.37046 11.3378 8.0013 11.3378Z" fill="#E81C48"/>
<path d="M7.55653 6.00192C7.55653 5.75736 7.75667 5.55727 8.0013 5.55727C8.24592 5.55727 8.44607 5.75736 8.44607 6.00192V8.66986C8.44607 8.91442 8.24592 9.11451 8.0013 9.11451C7.75667 9.11451 7.55653 8.91442 7.55653 8.66986V6.00192Z" fill="#FCFCFC"/>
<path d="M8.0013 11.3378C7.63214 11.3378 7.33414 11.0399 7.33414 10.6708C7.33414 10.3017 7.63214 10.0038 8.0013 10.0038C8.37046 10.0038 8.66845 10.3017 8.66845 10.6708C8.66845 11.0399 8.37046 11.3378 8.0013 11.3378Z" fill="#FCFCFC"/>
</svg>
