<svg width="24" height="24" viewBox="0 0 24 24" fill="none" xmlns="http://www.w3.org/2000/svg">
<path d="M15.5 4.00586C18 4.00586 19.5002 5.5 19.5 8V12C19.5 14.5 18 16 15.5 16H10C8.62228 16 6.85691 18.8121 5.99902 19.5918C4.99992 20.4998 4.50002 21 4.5 18.0088V8C4.5 5.5 6 4 8.5 4L15.5 4.00586ZM8.5 11C7.94772 11 7.5 11.4477 7.5 12C7.5 12.5523 7.94772 13 8.5 13H10.5C11.0523 13 11.5 12.5523 11.5 12C11.5 11.4477 11.0523 11 10.5 11H8.5ZM8.5 7C7.94772 7 7.5 7.44772 7.5 8C7.5 8.55228 7.94772 9 8.5 9H15.5C16.0523 9 16.5 8.55228 16.5 8C16.5 7.44772 16.0523 7 15.5 7H8.5Z" fill="#B0B7C9"/>
</svg>
