<svg width="24" height="24" viewBox="0 0 24 24" fill="none" xmlns="http://www.w3.org/2000/svg">
<g clip-path="url(#clip0_4642_18427)">
<path d="M17.8831 12.1391C17.8831 11.7312 17.8501 11.3212 17.7795 10.9199H12.1201V13.2304H15.361C15.2265 13.9756 14.7944 14.6348 14.1616 15.0537V16.5528H16.0951C17.2305 15.5078 17.8831 13.9646 17.8831 12.1391Z" fill="#6D6D6D"/>
<path d="M12.1201 18.0007C13.7383 18.0007 15.103 17.4693 16.0973 16.5522L14.1638 15.053C13.6258 15.419 12.9314 15.6262 12.1223 15.6262C10.5569 15.6262 9.22973 14.5702 8.75352 13.1504H6.7583V14.6959C7.77686 16.722 9.85145 18.0007 12.1201 18.0007Z" fill="#6D6D6D"/>
<path d="M8.75139 13.1494C8.50005 12.4042 8.50005 11.5973 8.75139 10.8521V9.30664H6.75837C5.90737 11.002 5.90737 12.9995 6.75837 14.6948L8.75139 13.1494Z" fill="#6D6D6D"/>
<path d="M12.12 8.37483C12.9755 8.3616 13.8022 8.68348 14.4217 9.27433L16.1347 7.56131C15.0501 6.54275 13.6104 5.98277 12.12 6.0004C9.85145 6.0004 7.77686 7.27911 6.7583 9.3074L8.75132 10.8529C9.22532 9.43087 10.5547 8.37483 12.12 8.37483Z" fill="#6D6D6D"/>
</g>
<defs>
<clipPath id="clip0_4642_18427">
<rect width="12" height="12" fill="white" transform="translate(6 6)"/>
</clipPath>
</defs>
</svg>
