<svg width="16" height="16" viewBox="0 0 16 16" fill="none" xmlns="http://www.w3.org/2000/svg">
<mask id="path-1-inside-1_3182_12341" fill="white">
<path fill-rule="evenodd" clip-rule="evenodd" d="M8 3.33203C5.66667 3.33203 4 4.9987 4 7.33203C4 10.6654 8 12.9987 8 12.9987C8 12.9987 12 10.332 12 7.33203C12 4.9987 10.3333 3.33203 8 3.33203ZM8 9.33203C9.10457 9.33203 10 8.4366 10 7.33203C10 6.22746 9.10457 5.33203 8 5.33203C6.89543 5.33203 6 6.22746 6 7.33203C6 8.4366 6.89543 9.33203 8 9.33203Z"/>
</mask>
<path fill-rule="evenodd" clip-rule="evenodd" d="M8 3.33203C5.66667 3.33203 4 4.9987 4 7.33203C4 10.6654 8 12.9987 8 12.9987C8 12.9987 12 10.332 12 7.33203C12 4.9987 10.3333 3.33203 8 3.33203ZM8 9.33203C9.10457 9.33203 10 8.4366 10 7.33203C10 6.22746 9.10457 5.33203 8 5.33203C6.89543 5.33203 6 6.22746 6 7.33203C6 8.4366 6.89543 9.33203 8 9.33203Z" fill="#FAFAFA"/>
<path d="M8 12.9987L7.66409 13.5746L8.02354 13.7842L8.3698 13.5534L8 12.9987ZM4 7.33203H4.66667C4.66667 5.36689 6.03486 3.9987 8 3.9987V3.33203V2.66536C5.29848 2.66536 3.33333 4.63051 3.33333 7.33203H4ZM8 12.9987C8.33591 12.4228 8.33607 12.4229 8.33622 12.423C8.33625 12.423 8.33638 12.4231 8.33643 12.4231C8.33655 12.4232 8.3366 12.4232 8.33659 12.4232C8.33658 12.4232 8.33633 12.4231 8.33584 12.4228C8.33488 12.4222 8.33297 12.4211 8.33016 12.4194C8.32455 12.4161 8.31532 12.4105 8.30271 12.4028C8.2775 12.3874 8.23883 12.3634 8.18863 12.3311C8.08816 12.2666 7.94196 12.1691 7.76533 12.0416C7.4109 11.7856 6.93997 11.4125 6.4714 10.944C5.51468 9.98724 4.66667 8.73267 4.66667 7.33203H4H3.33333C3.33333 9.26473 4.48532 10.8435 5.5286 11.8868C6.06003 12.4182 6.5891 12.8368 6.98467 13.1225C7.18304 13.2657 7.34934 13.3767 7.46762 13.4527C7.5268 13.4908 7.57407 13.5201 7.60744 13.5405C7.62414 13.5507 7.63737 13.5587 7.64689 13.5644C7.65165 13.5672 7.65548 13.5695 7.65836 13.5712C7.6598 13.572 7.66099 13.5727 7.66195 13.5733C7.66243 13.5736 7.66285 13.5738 7.6632 13.574C7.66338 13.5741 7.6636 13.5743 7.66369 13.5743C7.6639 13.5744 7.66409 13.5746 8 12.9987ZM12 7.33203H11.3333C11.3333 8.55803 10.4968 9.81017 9.51907 10.8287C9.04551 11.322 8.56959 11.7287 8.2112 12.0125C8.03254 12.1539 7.88444 12.2637 7.78225 12.3373C7.73119 12.3741 7.69169 12.4017 7.66569 12.4197C7.65269 12.4287 7.64307 12.4353 7.63707 12.4394C7.63407 12.4414 7.63198 12.4428 7.63082 12.4436C7.63024 12.444 7.6299 12.4442 7.6298 12.4443C7.62974 12.4443 7.62975 12.4443 7.62982 12.4443C7.62985 12.4442 7.62995 12.4442 7.62996 12.4442C7.63007 12.4441 7.6302 12.444 8 12.9987C8.3698 13.5534 8.36996 13.5533 8.37013 13.5532C8.3702 13.5531 8.37039 13.553 8.37055 13.5529C8.37086 13.5527 8.37123 13.5524 8.37166 13.5522C8.37252 13.5516 8.37363 13.5508 8.37498 13.5499C8.37767 13.5481 8.38131 13.5457 8.38588 13.5426C8.39502 13.5364 8.40786 13.5276 8.42416 13.5163C8.45674 13.4938 8.50318 13.4612 8.5615 13.4192C8.67806 13.3353 8.84246 13.2133 9.0388 13.0579C9.43041 12.7478 9.95449 12.3004 10.4809 11.7521C11.5032 10.6872 12.6667 9.10603 12.6667 7.33203H12ZM8 3.33203V3.9987C9.96514 3.9987 11.3333 5.36689 11.3333 7.33203H12H12.6667C12.6667 4.63051 10.7015 2.66536 8 2.66536V3.33203ZM10 7.33203H9.33333C9.33333 8.06841 8.73638 8.66536 8 8.66536V9.33203V9.9987C9.47276 9.9987 10.6667 8.80479 10.6667 7.33203H10ZM8 5.33203V5.9987C8.73638 5.9987 9.33333 6.59565 9.33333 7.33203H10H10.6667C10.6667 5.85927 9.47276 4.66536 8 4.66536V5.33203ZM6 7.33203H6.66667C6.66667 6.59565 7.26362 5.9987 8 5.9987V5.33203V4.66536C6.52724 4.66536 5.33333 5.85927 5.33333 7.33203H6ZM8 9.33203V8.66536C7.26362 8.66536 6.66667 8.06841 6.66667 7.33203H6H5.33333C5.33333 8.80479 6.52724 9.9987 8 9.9987V9.33203Z" fill="#FAFAFA" mask="url(#path-1-inside-1_3182_12341)"/>
</svg>
