<svg width="24" height="24" viewBox="0 0 24 24" fill="none" xmlns="http://www.w3.org/2000/svg">
<g id="location">
<g id="Exclude">
<mask id="path-1-inside-1_2192_11578" fill="white">
<path fill-rule="evenodd" clip-rule="evenodd" d="M12 5C8.5 5 6 7.5 6 11C6 16 12 19.5 12 19.5C12 19.5 18 15.5 18 11C18 7.5 15.5 5 12 5ZM12 14C13.6569 14 15 12.6569 15 11C15 9.34315 13.6569 8 12 8C10.3431 8 9 9.34315 9 11C9 12.6569 10.3431 14 12 14Z"/>
</mask>
<path fill-rule="evenodd" clip-rule="evenodd" d="M12 5C8.5 5 6 7.5 6 11C6 16 12 19.5 12 19.5C12 19.5 18 15.5 18 11C18 7.5 15.5 5 12 5ZM12 14C13.6569 14 15 12.6569 15 11C15 9.34315 13.6569 8 12 8C10.3431 8 9 9.34315 9 11C9 12.6569 10.3431 14 12 14Z" fill="#8691AA"/>
<path d="M12 19.5L11.4961 20.3638L12.0353 20.6783L12.5547 20.3321L12 19.5ZM6 11H7C7 8.05228 9.05228 6 12 6V5V4C7.94772 4 5 6.94772 5 11H6ZM12 19.5C12.5039 18.6362 12.5041 18.6364 12.5043 18.6365C12.5044 18.6365 12.5046 18.6366 12.5046 18.6367C12.5048 18.6368 12.5049 18.6368 12.5049 18.6368C12.5049 18.6368 12.5045 18.6366 12.5038 18.6362C12.5023 18.6353 12.4995 18.6336 12.4952 18.6311C12.4868 18.6261 12.473 18.6177 12.4541 18.6062C12.4162 18.5831 12.3582 18.5471 12.2829 18.4987C12.1322 18.4018 11.9129 18.2557 11.648 18.0643C11.1163 17.6804 10.4099 17.1207 9.70711 16.4179C8.27202 14.9828 7 13.101 7 11H6H5C5 13.899 6.72798 16.2672 8.29289 17.8321C9.09005 18.6293 9.88366 19.2571 10.477 19.6857C10.7746 19.9006 11.024 20.067 11.2014 20.181C11.2902 20.2381 11.3611 20.2822 11.4112 20.3128C11.4362 20.3281 11.4561 20.34 11.4703 20.3485C11.4775 20.3528 11.4832 20.3562 11.4875 20.3587C11.4897 20.36 11.4915 20.3611 11.4929 20.3619C11.4936 20.3623 11.4943 20.3627 11.4948 20.363C11.4951 20.3632 11.4954 20.3634 11.4955 20.3634C11.4958 20.3636 11.4961 20.3638 12 19.5ZM18 11H17C17 12.839 15.7453 14.7172 14.2786 16.245C13.5683 16.9849 12.8544 17.5951 12.3168 18.0206C12.0488 18.2328 11.8267 18.3975 11.6734 18.5079C11.5968 18.5631 11.5375 18.6046 11.4985 18.6315C11.479 18.645 11.4646 18.6549 11.4556 18.661C11.4511 18.664 11.448 18.6662 11.4462 18.6673C11.4454 18.6679 11.4449 18.6682 11.4447 18.6684C11.4446 18.6684 11.4446 18.6684 11.4447 18.6683C11.4448 18.6683 11.4449 18.6682 11.4449 18.6682C11.4451 18.6681 11.4453 18.6679 12 19.5C12.5547 20.3321 12.5549 20.3319 12.5552 20.3317C12.5553 20.3316 12.5556 20.3315 12.5558 20.3313C12.5563 20.331 12.5568 20.3306 12.5575 20.3302C12.5588 20.3293 12.5604 20.3282 12.5625 20.3268C12.5665 20.3241 12.572 20.3204 12.5788 20.3158C12.5925 20.3065 12.6118 20.2933 12.6362 20.2764C12.6851 20.2426 12.7548 20.1938 12.8422 20.1308C13.0171 20.0049 13.2637 19.8219 13.5582 19.5887C14.1456 19.1237 14.9317 18.4526 15.7214 17.63C17.2547 16.0328 19 13.661 19 11H18ZM12 5V6C14.9477 6 17 8.05228 17 11H18H19C19 6.94772 16.0523 4 12 4V5ZM15 11H14C14 12.1046 13.1046 13 12 13V14V15C14.2091 15 16 13.2091 16 11H15ZM12 8V9C13.1046 9 14 9.89543 14 11H15H16C16 8.79086 14.2091 7 12 7V8ZM9 11H10C10 9.89543 10.8954 9 12 9V8V7C9.79086 7 8 8.79086 8 11H9ZM12 14V13C10.8954 13 10 12.1046 10 11H9H8C8 13.2091 9.79086 15 12 15V14Z" fill="#8691AA" mask="url(#path-1-inside-1_2192_11578)"/>
</g>
</g>
</svg>
