<svg width="24" height="24" viewBox="0 0 24 24" fill="none" xmlns="http://www.w3.org/2000/svg">
<g clip-path="url(#clip0_1850_18902)">
<path d="M21.8052 12.2312C21.8052 11.5514 21.7501 10.868 21.6325 10.1992H12.2002V14.05H17.6016C17.3775 15.292 16.6573 16.3907 15.6027 17.0888V19.5874H18.8252C20.7176 17.8457 21.8052 15.2736 21.8052 12.2312Z" fill="#FAFAFA"/>
<path d="M12.1999 21.9998C14.897 21.9998 17.1714 21.1143 18.8286 19.5857L15.6061 17.0871C14.7096 17.697 13.5521 18.0424 12.2036 18.0424C9.59474 18.0424 7.38272 16.2824 6.58904 13.916H3.26367V16.4918C4.96127 19.8686 8.41892 21.9998 12.1999 21.9998Z" fill="#FAFAFA"/>
<path d="M6.58564 13.9163C6.16676 12.6743 6.16676 11.3295 6.58564 10.0875V7.51172H3.26395C1.84561 10.3374 1.84561 13.6664 3.26395 16.4921L6.58564 13.9163Z" fill="#FAFAFA"/>
<path d="M12.1999 5.95805C13.6256 5.936 15.0035 6.47247 16.036 7.45722L18.8911 4.60218C17.0833 2.90459 14.6838 1.97128 12.1999 2.00067C8.41892 2.00067 4.96127 4.13185 3.26367 7.51234L6.58537 10.0881C7.37538 7.71811 9.59107 5.95805 12.1999 5.95805Z" fill="#FAFAFA"/>
</g>
<defs>
<clipPath id="clip0_1850_18902">
<rect width="20" height="20" fill="white" transform="translate(2 2)"/>
</clipPath>
</defs>
</svg>
