<svg width="34" height="34" viewBox="0 0 34 34" fill="none" xmlns="http://www.w3.org/2000/svg">
<path d="M28.7649 12.6857H5.26044C5.11655 12.6857 5 12.5737 5 12.4357V12.1232C5 9.03047 8.8089 6.5 12.0318 6.5H23.1655C26.3884 6.5 29.0253 9.03047 29.0253 12.1232V12.4357C29.0253 12.5737 28.9088 12.6857 28.7649 12.6857Z" fill="#343846"/>
<path d="M28.7323 20.0936H12.6178C9.39488 20.0936 5 17.4427 5 14.2028C5 14.04 5.1312 13.9082 5.29299 13.9082H21.4076C24.6305 13.9082 29.0253 16.5591 29.0253 19.799C29.0253 19.9617 28.8941 20.0936 28.7323 20.0936Z" fill="#343846"/>
<path d="M21.9935 27.5002H10.8598C7.63693 27.5002 5 24.9697 5 21.877V21.5645C5 21.4264 5.11655 21.3145 5.26044 21.3145H28.7649C28.9088 21.3145 29.0253 21.4264 29.0253 21.5645V21.877C29.0253 24.9697 25.2164 27.5002 21.9935 27.5002Z" fill="#343846"/>
</svg>
