<svg width="16" height="16" viewBox="0 0 16 16" fill="none" xmlns="http://www.w3.org/2000/svg">
<path d="M15.3337 10.666C15.1569 10.666 14.9873 10.7363 14.8623 10.8613C14.7372 10.9863 14.667 11.1559 14.667 11.3327V12.666C14.667 13.1964 14.4563 13.7051 14.0812 14.0802C13.7061 14.4552 13.1974 14.6659 12.667 14.6659H11.3337C11.1568 14.6659 10.9873 14.7362 10.8623 14.8612C10.7372 14.9862 10.667 15.1558 10.667 15.3326C10.667 15.5094 10.7372 15.679 10.8623 15.804C10.9873 15.929 11.1568 15.9992 11.3337 15.9992H12.667C13.5507 15.9982 14.398 15.6467 15.0229 15.0218C15.6478 14.3969 15.9993 13.5497 16.0003 12.666V11.3327C16.0003 11.1559 15.9301 10.9863 15.8051 10.8613C15.6801 10.7363 15.5105 10.666 15.3337 10.666Z" fill="#677390"/>
<path d="M0.666668 5.33322C0.84348 5.33322 1.01305 5.26299 1.13807 5.13797C1.2631 5.01294 1.33334 4.84338 1.33334 4.66657V3.33327C1.33334 2.80284 1.54405 2.29415 1.91912 1.91908C2.2942 1.54402 2.80291 1.33331 3.33334 1.33331H4.66668C4.84349 1.33331 5.01306 1.26307 5.13808 1.13805C5.26311 1.01303 5.33335 0.843461 5.33335 0.666653C5.33335 0.489846 5.26311 0.32028 5.13808 0.195258C5.01306 0.0702365 4.84349 0 4.66668 0L3.33334 0C2.44961 0.00105855 1.60238 0.352581 0.977482 0.97746C0.352589 1.60234 0.00105857 2.44955 0 3.33327L0 4.66657C0 4.84338 0.0702381 5.01294 0.195263 5.13797C0.320287 5.26299 0.489857 5.33322 0.666668 5.33322Z" fill="#677390"/>
<path d="M4.66668 14.6659H3.33334C2.80291 14.6659 2.2942 14.4552 1.91912 14.0802C1.54405 13.7051 1.33334 13.1964 1.33334 12.666V11.3327C1.33334 11.1559 1.2631 10.9863 1.13807 10.8613C1.01305 10.7363 0.84348 10.666 0.666668 10.666C0.489857 10.666 0.320287 10.7363 0.195263 10.8613C0.0702381 10.9863 0 11.1559 0 11.3327L0 12.666C0.00105857 13.5497 0.352589 14.3969 0.977482 15.0218C1.60238 15.6467 2.44961 15.9982 3.33334 15.9992H4.66668C4.84349 15.9992 5.01306 15.929 5.13808 15.804C5.26311 15.679 5.33335 15.5094 5.33335 15.3326C5.33335 15.1558 5.26311 14.9862 5.13808 14.8612C5.01306 14.7362 4.84349 14.6659 4.66668 14.6659Z" fill="#677390"/>
<path d="M12.667 0H11.3337C11.1568 0 10.9873 0.0702365 10.8623 0.195258C10.7372 0.32028 10.667 0.489846 10.667 0.666653C10.667 0.843461 10.7372 1.01303 10.8623 1.13805C10.9873 1.26307 11.1568 1.33331 11.3337 1.33331H12.667C13.1974 1.33331 13.7061 1.54402 14.0812 1.91908C14.4563 2.29415 14.667 2.80284 14.667 3.33327V4.66657C14.667 4.84338 14.7372 5.01294 14.8623 5.13797C14.9873 5.26299 15.1569 5.33322 15.3337 5.33322C15.5105 5.33322 15.6801 5.26299 15.8051 5.13797C15.9301 5.01294 16.0003 4.84338 16.0003 4.66657V3.33327C15.9993 2.44955 15.6478 1.60234 15.0229 0.97746C14.398 0.352581 13.5507 0.00105855 12.667 0Z" fill="#677390"/>
<path d="M12.4717 11.5276L7.41434 6.47033C7.03928 6.09539 6.53066 5.88477 6.00033 5.88477C5.47 5.88477 4.96139 6.09539 4.58633 6.47033L3.05766 7.99896C2.80759 8.24895 2.66707 8.58802 2.66699 8.94161V10.6656C2.66699 11.196 2.87771 11.7047 3.25278 12.0798C3.62785 12.4548 4.13656 12.6655 4.667 12.6655H12.0003C12.1322 12.6655 12.261 12.6264 12.3707 12.5531C12.4803 12.4799 12.5657 12.3758 12.6161 12.254C12.6666 12.1322 12.6798 11.9982 12.6541 11.8689C12.6284 11.7396 12.5649 11.6208 12.4717 11.5276Z" fill="#677390"/>
<path d="M10.6667 7.00709C11.5871 7.00709 12.3333 6.26092 12.3333 5.34046C12.3333 4.42 11.5871 3.67383 10.6667 3.67383C9.74619 3.67383 9 4.42 9 5.34046C9 6.26092 9.74619 7.00709 10.6667 7.00709Z" fill="#677390"/>
</svg>
