<svg width="24" height="24" viewBox="0 0 24 24" fill="none" xmlns="http://www.w3.org/2000/svg">
<path d="M11.9003 16C11.4164 16 11.0244 15.6236 11.0244 15.1589C11.0244 14.6943 11.4164 14.3179 11.9003 14.3179C12.3843 14.3179 12.7763 14.6943 12.7763 15.1589C12.7763 15.6236 12.3843 16 11.9003 16ZM12.4855 12.5616V12.9279C12.4855 13.238 12.2233 13.4897 11.9003 13.4897C11.5773 13.4897 11.3152 13.238 11.3152 12.9279V12.0475C11.3152 11.7385 11.575 11.4873 11.8968 11.4856C12.7681 11.4806 13.1139 11.1469 13.1297 10.2945C13.1151 9.48606 12.7459 9.12985 11.8962 9.12424C11.0431 9.12929 10.6862 9.47482 10.6704 10.3148C10.6645 10.6255 10.3755 10.8637 10.0747 10.8665C9.75171 10.8609 9.49425 10.6047 9.5001 10.2945C9.52701 8.84557 10.4006 8.00955 11.8962 8C13.3784 8.00955 14.2743 8.86748 14.3 10.2945C14.2754 11.5823 13.637 12.366 12.4849 12.5604L12.4855 12.5616Z" fill="#8691AA"/>
<path d="M12.4855 12.5616V12.9279C12.4855 13.238 12.2233 13.4897 11.9003 13.4897C11.5773 13.4897 11.3152 13.238 11.3152 12.9279V12.0475C11.3152 11.7385 11.575 11.4873 11.8968 11.4856C12.7681 11.4806 13.1139 11.1469 13.1297 10.2945C13.1151 9.48606 12.7459 9.12985 11.8962 9.12424C11.0431 9.12929 10.6862 9.47482 10.6704 10.3148C10.6645 10.6255 10.3755 10.8637 10.0747 10.8665C9.75171 10.8609 9.49425 10.6047 9.5001 10.2945C9.52701 8.84557 10.4006 8.00955 11.8962 8C13.3784 8.00955 14.2743 8.86748 14.3 10.2945C14.2754 11.5823 13.637 12.366 12.4849 12.5604L12.4855 12.5616Z" fill="#8691AA"/>
<path d="M11.9003 16C11.4164 16 11.0244 15.6236 11.0244 15.1589C11.0244 14.6943 11.4164 14.3179 11.9003 14.3179C12.3843 14.3179 12.7763 14.6943 12.7763 15.1589C12.7763 15.6236 12.3843 16 11.9003 16Z" fill="#8691AA"/>
<path d="M12 4.5C15.0587 4.5 16.5335 5.50809 17.5127 6.4873C18.4919 7.46652 19.5 8.94128 19.5 12C19.5 15.0587 18.4919 16.5335 17.5127 17.5127C16.5335 18.4919 15.0587 19.5 12 19.5C8.94128 19.5 7.46652 18.4919 6.4873 17.5127C5.50809 16.5335 4.5 15.0587 4.5 12C4.5 8.94128 5.50809 7.46652 6.4873 6.4873C7.46652 5.50809 8.94128 4.5 12 4.5Z" stroke="#8691AA"/>
</svg>
