<svg width="24" height="24" viewBox="0 0 24 24" fill="none" xmlns="http://www.w3.org/2000/svg">
<path d="M4.95366 16C5.92354 17.658 6.75142 17.2859 7.72112 16.7344L7.72308 16.7333L8.02365 16.562C8.59105 17.0411 9.24323 17.4127 9.94737 17.658V18C9.94737 19.1046 9.94734 20 11.9738 20C14.0001 20 14.0002 19.1046 14.0002 18V17.658C14.7044 17.4123 15.3566 17.0403 15.9239 16.5607L16.2258 16.7327C17.1957 17.2849 18.025 17.658 18.9952 15.9993C20.0794 14.1461 19.2222 13.8182 18.2522 13.266L17.9523 13.0953C18.0873 12.3703 18.0873 11.627 17.9523 10.902L18.2522 10.7313C19.2221 10.179 19.9932 9.70399 18.9952 7.99797C18.0266 6.342 17.1958 6.71234 16.2258 7.26463L15.9253 7.43597C15.3573 6.95744 14.7047 6.58656 14.0002 6.342V6C14.0002 4.89544 14.0003 4 11.9738 4C9.9475 4 9.94737 4.89544 9.94737 6V6.342C9.24314 6.58772 8.59092 6.95972 8.02365 7.43934L7.72172 7.26669C6.75177 6.71438 5.92218 6.342 4.9523 8C4.07456 9.5 4.72537 10.1811 5.69532 10.7333L5.99523 10.904C5.86022 11.629 5.86022 12.3723 5.99523 13.0973L5.69532 13.268C4.72807 13.8217 3.98399 14.342 4.95366 16ZM11.9738 9.5C13.466 9.5 14.5068 10.5273 14.5068 12C14.5068 13.4727 13.466 14.5 11.9738 14.5C10.4816 14.5 9.44083 13.4727 9.44083 12C9.44083 10.5273 10.4816 9.5 11.9738 9.5Z" fill="#B0B7C9"/>
</svg>
