<svg width="24" height="24" viewBox="0 0 24 24" fill="none" xmlns="http://www.w3.org/2000/svg">
<path fill-rule="evenodd" clip-rule="evenodd" d="M16.375 9.375C17.3415 9.375 18.125 8.5915 18.125 7.625C18.125 6.6585 17.3415 5.875 16.375 5.875C15.4085 5.875 14.625 6.6585 14.625 7.625C14.625 8.5915 15.4085 9.375 16.375 9.375ZM16.375 10.25C17.8247 10.25 19 9.07475 19 7.625C19 6.17525 17.8247 5 16.375 5C14.9253 5 13.75 6.17525 13.75 7.625C13.75 7.68356 13.7519 7.74167 13.7557 7.79928L9.47272 10.1354C8.99837 9.66535 8.34559 9.375 7.625 9.375C6.17525 9.375 5 10.5503 5 12C5 13.4497 6.17525 14.625 7.625 14.625C8.3456 14.625 8.99839 14.3346 9.47274 13.8645L13.7557 16.2007C13.7519 16.2583 13.75 16.3164 13.75 16.375C13.75 17.8247 14.9253 19 16.375 19C17.8247 19 19 17.8247 19 16.375C19 14.9253 17.8247 13.75 16.375 13.75C15.3001 13.75 14.3762 14.396 13.9702 15.321L9.98634 13.148C10.1552 12.8012 10.25 12.4117 10.25 12C10.25 11.5883 10.1552 11.1988 9.98632 10.852L13.9702 8.67899C14.3761 9.60396 15.3001 10.25 16.375 10.25ZM16.375 18.125C17.3415 18.125 18.125 17.3415 18.125 16.375C18.125 15.4085 17.3415 14.625 16.375 14.625C15.4085 14.625 14.625 15.4085 14.625 16.375C14.625 17.3415 15.4085 18.125 16.375 18.125ZM9.375 12C9.375 12.9665 8.5915 13.75 7.625 13.75C6.6585 13.75 5.875 12.9665 5.875 12C5.875 11.0335 6.6585 10.25 7.625 10.25C8.5915 10.25 9.375 11.0335 9.375 12Z" fill="#646F8C"/>
</svg>
