<svg width="185" height="65" viewBox="0 0 185 65" fill="none" xmlns="http://www.w3.org/2000/svg">
<path d="M48.6314 26.25H15.3686C15.1649 26.25 15 26.0961 15 25.9064V25.477C15 21.2272 20.3902 17.75 24.9512 17.75H40.7073C45.2683 17.75 49 21.2272 49 25.477V25.9064C49 26.0961 48.8351 26.25 48.6314 26.25Z" fill="#FAFAFA"/>
<path d="M48.5854 36.75H25.7805C21.2195 36.75 15 33.1071 15 28.6549C15 28.4312 15.1857 28.25 15.4146 28.25H38.2195C42.7805 28.25 49 31.8929 49 36.3451C49 36.5688 48.8143 36.75 48.5854 36.75Z" fill="#FAFAFA"/>
<path d="M39.0488 47.25H23.2927C18.7317 47.25 15 43.7728 15 39.523V39.0936C15 38.9039 15.1649 38.75 15.3686 38.75H48.6314C48.8351 38.75 49 38.9039 49 39.0936V39.523C49 43.7728 43.6098 47.25 39.0488 47.25Z" fill="#FAFAFA"/>
<path d="M73.664 22.396C75.0507 22.396 76.128 22.5347 76.896 22.812C77.664 23.0893 78.3147 23.3773 78.848 23.676C79.104 23.8253 79.3067 23.9427 79.456 24.028C79.6267 24.092 79.7867 24.124 79.936 24.124C80.1493 24.124 80.2987 24.0067 80.384 23.772C80.4907 23.5373 80.576 23.1853 80.64 22.716H81.376C81.3547 23.164 81.3227 23.6867 81.28 24.284C81.2587 24.8813 81.2373 25.6707 81.216 26.652C81.216 27.6333 81.216 28.924 81.216 30.524H80.48C80.3947 29.3507 80.1173 28.2093 79.648 27.1C79.2 25.9907 78.5707 25.0733 77.76 24.348C76.9707 23.6227 76.0213 23.26 74.912 23.26C73.9733 23.26 73.1947 23.516 72.576 24.028C71.9573 24.54 71.648 25.276 71.648 26.236C71.648 27.0253 71.84 27.708 72.224 28.284C72.608 28.8387 73.2053 29.4253 74.016 30.044C74.848 30.6627 75.936 31.4413 77.28 32.38C78.24 33.0413 79.104 33.7027 79.872 34.364C80.6613 35.0253 81.2907 35.772 81.76 36.604C82.2293 37.436 82.464 38.4387 82.464 39.612C82.464 41.0413 82.0587 42.2253 81.248 43.164C80.4587 44.1027 79.4027 44.8067 78.08 45.276C76.7573 45.724 75.3173 45.948 73.76 45.948C72.3093 45.948 71.1467 45.82 70.272 45.564C69.4187 45.308 68.6933 45.0413 68.096 44.764C67.6267 44.4653 67.264 44.316 67.008 44.316C66.7947 44.316 66.6347 44.4333 66.528 44.668C66.4427 44.9027 66.368 45.2547 66.304 45.724H65.568C65.6107 45.1693 65.632 44.5293 65.632 43.804C65.6533 43.0573 65.664 42.0973 65.664 40.924C65.6853 39.7507 65.696 38.2573 65.696 36.444H66.432C66.5173 37.9373 66.752 39.3347 67.136 40.636C67.5413 41.9373 68.1493 42.9933 68.96 43.804C69.792 44.5933 70.8907 44.988 72.256 44.988C73.0453 44.988 73.7173 44.8707 74.272 44.636C74.848 44.38 75.296 44.0173 75.616 43.548C75.936 43.0787 76.096 42.5133 76.096 41.852C76.096 40.956 75.8933 40.1773 75.488 39.516C75.0827 38.8333 74.528 38.204 73.824 37.628C73.1413 37.0307 72.3413 36.4333 71.424 35.836C70.4213 35.1533 69.4827 34.4707 68.608 33.788C67.7333 33.1053 67.0293 32.3373 66.496 31.484C65.984 30.6307 65.728 29.6173 65.728 28.444C65.728 27.036 66.1013 25.8947 66.848 25.02C67.5947 24.124 68.576 23.4627 69.792 23.036C71.008 22.6093 72.2987 22.396 73.664 22.396ZM92.841 28.444C94.505 28.444 95.945 28.732 97.161 29.308C98.3983 29.8627 99.3583 30.78 100.041 32.06C100.724 33.34 101.065 35.0573 101.065 37.212C101.065 39.3667 100.724 41.084 100.041 42.364C99.3583 43.644 98.3983 44.5613 97.161 45.116C95.945 45.6707 94.505 45.948 92.841 45.948C91.1983 45.948 89.7583 45.6707 88.521 45.116C87.2837 44.5613 86.3237 43.644 85.641 42.364C84.9583 41.084 84.617 39.3667 84.617 37.212C84.617 35.0573 84.9583 33.34 85.641 32.06C86.3237 30.78 87.2837 29.8627 88.521 29.308C89.7583 28.732 91.1983 28.444 92.841 28.444ZM92.841 29.084C92.201 29.084 91.6677 29.724 91.241 31.004C90.8143 32.284 90.601 34.3533 90.601 37.212C90.601 40.0707 90.8143 42.14 91.241 43.42C91.6677 44.6787 92.201 45.308 92.841 45.308C93.481 45.308 94.0143 44.6787 94.441 43.42C94.8677 42.14 95.081 40.0707 95.081 37.212C95.081 34.3533 94.8677 32.284 94.441 31.004C94.0143 29.724 93.481 29.084 92.841 29.084ZM109.878 20.476V42.524C109.878 43.42 110.006 44.028 110.262 44.348C110.539 44.668 111.009 44.828 111.67 44.828V45.5C111.243 45.4787 110.603 45.4573 109.75 45.436C108.897 45.3933 108.022 45.372 107.126 45.372C106.23 45.372 105.323 45.3933 104.406 45.436C103.489 45.4573 102.795 45.4787 102.326 45.5V44.828C102.987 44.828 103.446 44.668 103.702 44.348C103.979 44.028 104.118 43.42 104.118 42.524V24.316C104.118 23.356 103.99 22.652 103.734 22.204C103.478 21.7347 103.009 21.5 102.326 21.5V20.828C103.009 20.892 103.67 20.924 104.31 20.924C105.377 20.924 106.369 20.892 107.286 20.828C108.225 20.7427 109.089 20.6253 109.878 20.476ZM121.154 28.444C123.031 28.444 124.503 28.9987 125.57 30.108C126.658 31.196 127.202 33.0307 127.202 35.612H117.186L117.122 35.004H122.53C122.551 33.9587 122.508 32.9987 122.402 32.124C122.295 31.228 122.124 30.5133 121.89 29.98C121.655 29.4467 121.335 29.18 120.93 29.18C120.354 29.18 119.884 29.6387 119.522 30.556C119.159 31.452 118.924 32.9987 118.818 35.196L118.946 35.452C118.924 35.6653 118.914 35.8787 118.914 36.092C118.914 36.3053 118.914 36.5293 118.914 36.764C118.914 38.2573 119.095 39.42 119.458 40.252C119.842 41.084 120.311 41.66 120.866 41.98C121.442 42.3 122.018 42.46 122.594 42.46C122.892 42.46 123.244 42.4173 123.65 42.332C124.076 42.2467 124.535 42.0547 125.026 41.756C125.516 41.436 125.996 40.956 126.466 40.316L127.01 40.508C126.754 41.3613 126.338 42.2147 125.762 43.068C125.207 43.9 124.482 44.5933 123.586 45.148C122.69 45.6813 121.602 45.948 120.322 45.948C118.956 45.948 117.708 45.6707 116.578 45.116C115.468 44.5613 114.583 43.644 113.922 42.364C113.26 41.084 112.93 39.3667 112.93 37.212C112.93 35.164 113.292 33.5 114.018 32.22C114.743 30.9187 115.724 29.9693 116.962 29.372C118.22 28.7533 119.618 28.444 121.154 28.444ZM136.159 28.572V47.996C136.159 49.0413 136.405 49.7347 136.895 50.076C137.386 50.4387 138.058 50.62 138.911 50.62V51.292C138.314 51.2707 137.482 51.2387 136.415 51.196C135.349 51.1747 134.218 51.164 133.023 51.164C132.17 51.164 131.327 51.1747 130.495 51.196C129.663 51.2387 129.034 51.2707 128.607 51.292V50.62C129.269 50.62 129.727 50.46 129.983 50.14C130.261 49.82 130.399 49.212 130.399 48.316V32.412C130.399 31.452 130.271 30.748 130.015 30.3C129.759 29.8307 129.29 29.596 128.607 29.596V28.924C129.29 28.988 129.951 29.02 130.591 29.02C131.658 29.02 132.65 28.988 133.567 28.924C134.506 28.8387 135.37 28.7213 136.159 28.572ZM141.023 28.444C142.09 28.444 143.039 28.7427 143.871 29.34C144.703 29.916 145.365 30.8013 145.855 31.996C146.346 33.1693 146.591 34.6627 146.591 36.476C146.591 38.2893 146.389 39.804 145.983 41.02C145.599 42.236 145.055 43.2067 144.351 43.932C143.669 44.6573 142.879 45.18 141.983 45.5C141.087 45.7987 140.138 45.948 139.135 45.948C138.41 45.948 137.717 45.8627 137.055 45.692C136.415 45.5427 135.882 45.244 135.455 44.796L135.775 44.38C135.946 44.6147 136.17 44.7747 136.447 44.86C136.725 44.9453 137.002 44.988 137.279 44.988C138.069 44.988 138.709 44.7 139.199 44.124C139.69 43.548 140.042 42.684 140.255 41.532C140.49 40.38 140.607 38.94 140.607 37.212C140.607 35.3133 140.511 33.852 140.319 32.828C140.127 31.804 139.871 31.1 139.551 30.716C139.231 30.3107 138.869 30.108 138.463 30.108C137.866 30.108 137.333 30.3213 136.863 30.748C136.394 31.1747 136.159 31.7293 136.159 32.412V30.844C136.65 30.0333 137.311 29.436 138.143 29.052C138.975 28.6467 139.935 28.444 141.023 28.444ZM155.753 20.476V42.524C155.753 43.42 155.881 44.028 156.137 44.348C156.414 44.668 156.884 44.828 157.545 44.828V45.5C157.118 45.4787 156.478 45.4573 155.625 45.436C154.772 45.3933 153.897 45.372 153.001 45.372C152.105 45.372 151.198 45.3933 150.281 45.436C149.364 45.4573 148.67 45.4787 148.201 45.5V44.828C148.862 44.828 149.321 44.668 149.577 44.348C149.854 44.028 149.993 43.42 149.993 42.524V24.316C149.993 23.356 149.865 22.652 149.609 22.204C149.353 21.7347 148.884 21.5 148.201 21.5V20.828C148.884 20.892 149.545 20.924 150.185 20.924C151.252 20.924 152.244 20.892 153.161 20.828C154.1 20.7427 154.964 20.6253 155.753 20.476ZM163.277 20.476C164.386 20.476 165.24 20.7107 165.837 21.18C166.456 21.628 166.765 22.3107 166.765 23.228C166.765 24.1453 166.456 24.8387 165.837 25.308C165.24 25.756 164.386 25.98 163.277 25.98C162.168 25.98 161.304 25.756 160.685 25.308C160.088 24.8387 159.789 24.1453 159.789 23.228C159.789 22.3107 160.088 21.628 160.685 21.18C161.304 20.7107 162.168 20.476 163.277 20.476ZM166.349 28.54V42.524C166.349 43.42 166.477 44.028 166.733 44.348C167.01 44.668 167.48 44.828 168.141 44.828V45.5C167.714 45.4787 167.074 45.4573 166.221 45.436C165.368 45.3933 164.493 45.372 163.597 45.372C162.701 45.372 161.794 45.3933 160.877 45.436C159.96 45.4573 159.266 45.4787 158.797 45.5V44.828C159.458 44.828 159.917 44.668 160.173 44.348C160.45 44.028 160.589 43.42 160.589 42.524V32.38C160.589 31.42 160.461 30.716 160.205 30.268C159.949 29.7987 159.48 29.564 158.797 29.564V28.892C159.48 28.956 160.141 28.988 160.781 28.988C161.848 28.988 162.84 28.956 163.757 28.892C164.696 28.8067 165.56 28.6893 166.349 28.54Z" fill="#FAFAFA"/>
</svg>
