<svg width="24" height="24" viewBox="0 0 24 24" fill="none" xmlns="http://www.w3.org/2000/svg">
<path d="M12 18C12 18.3687 11.7013 18.6667 11.3333 18.6667H7.33333C5.49533 18.6667 4 17.1713 4 15.3333V7.33333C4 5.49533 5.49533 4 7.33333 4H15.3333C17.1713 4 18.6667 5.49533 18.6667 7.33333V11.3333C18.6667 11.702 18.368 12 18 12C17.632 12 17.3333 11.702 17.3333 11.3333V7.33333C17.3333 6.23067 16.436 5.33333 15.3333 5.33333H7.33333C6.23067 5.33333 5.33333 6.23067 5.33333 7.33333V11.9727L7.20533 10.1007C8.22667 9.07867 9.88867 9.07867 10.9107 10.1007L14.4713 13.6613C14.732 13.922 14.732 14.3433 14.4713 14.604C14.3413 14.734 14.1707 14.7993 14 14.7993C13.8293 14.7993 13.6587 14.734 13.5287 14.604L9.968 11.0433C9.46667 10.5427 8.65067 10.542 8.148 11.0433L5.33333 13.858V15.3333C5.33333 16.436 6.23067 17.3333 7.33333 17.3333H11.3333C11.7013 17.3333 12 17.6313 12 18ZM14 6.33333C15.1027 6.33333 16 7.23067 16 8.33333C16 9.436 15.1027 10.3333 14 10.3333C12.8973 10.3333 12 9.436 12 8.33333C12 7.23067 12.8973 6.33333 14 6.33333ZM14 7.66667C13.6327 7.66667 13.3333 7.96533 13.3333 8.33333C13.3333 8.70133 13.6327 9 14 9C14.3673 9 14.6667 8.70133 14.6667 8.33333C14.6667 7.96533 14.3673 7.66667 14 7.66667ZM19.3333 16H17.3333V14C17.3333 13.6313 17.0347 13.3333 16.6667 13.3333C16.2987 13.3333 16 13.6313 16 14V16H14C13.632 16 13.3333 16.298 13.3333 16.6667C13.3333 17.0353 13.632 17.3333 14 17.3333H16V19.3333C16 19.702 16.2987 20 16.6667 20C17.0347 20 17.3333 19.702 17.3333 19.3333V17.3333H19.3333C19.7013 17.3333 20 17.0353 20 16.6667C20 16.298 19.7013 16 19.3333 16Z" fill="#677390"/>
</svg>
