<svg width="20" height="20" viewBox="0 0 20 20" fill="none" xmlns="http://www.w3.org/2000/svg">
<g clip-path="url(#clip0_312_570)">
<path d="M8.57342 4.39058C9.02244 3.00861 10.9776 3.00861 11.4266 4.39058L11.9084 5.87336C12.1092 6.49139 12.6851 6.90983 13.335 6.90983H14.894C16.3471 6.90983 16.9513 8.76925 15.7757 9.62336L14.5144 10.5398C13.9887 10.9217 13.7687 11.5988 13.9695 12.2168L14.4513 13.6996C14.9003 15.0816 13.3186 16.2307 12.143 15.3766L10.8817 14.4602C10.3559 14.0783 9.64405 14.0783 9.11832 14.4602L7.85699 15.3766C6.68142 16.2307 5.0997 15.0816 5.54873 13.6996L6.03052 12.2168C6.23133 11.5988 6.01134 10.9217 5.48561 10.5398L4.22428 9.62336C3.04871 8.76925 3.65287 6.90983 5.10596 6.90983H6.66505C7.31489 6.90983 7.89082 6.49139 8.09163 5.87336L8.57342 4.39058Z" fill="#67A07A"/>
</g>
<defs>
<clipPath id="clip0_312_570">
<rect width="20" height="20" fill="white"/>
</clipPath>
</defs>
</svg>
