<svg width="32" height="32" viewBox="0 0 32 32" fill="none" xmlns="http://www.w3.org/2000/svg">
<path d="M12.5 11.5004C14.0609 9.93947 13.0366 6 16.0001 6C18.9635 6 18.0097 10.0004 19.5 11.5004C20.9903 13.0004 24.8558 10.6093 26 13.5C27.1443 16.3907 23.0002 17.0004 22.5001 19.0004C22 21.0004 24.7713 23.9 22 25.5C19.2288 27.1 18.5001 23.5 16.0001 23.5C13.5001 23.5 12.7713 27.1 10 25.5C7.22876 23.9 10.036 21.0004 9.50016 19.0004C8.96429 17.0004 4.86836 16.5182 6.00014 13.5C7.13191 10.4818 10.9391 13.0613 12.5 11.5004Z" fill="#96B2A0"/>
</svg>
