<svg width="24" height="24" viewBox="0 0 24 24" fill="none" xmlns="http://www.w3.org/2000/svg">
<path d="M17.9997 7.66666H15.9996C15.9996 5.5 13.9996 4 11.9996 4C9.99963 4 7.99963 5.5 7.99963 7.66666H5.99966C5.63148 7.66666 5.33301 7.96513 5.33301 8.33331C5.33301 8.7015 5.63148 9 5.99966 9H6.66632V16.6667C6.66854 18.5067 8.15963 19.9978 9.99966 20H13.9997C15.8397 19.9978 17.3308 18.5067 17.333 16.6667V9H17.9997C18.3679 9 18.6663 8.70153 18.6663 8.33334C18.6663 7.96516 18.3679 7.66666 17.9997 7.66666ZM11.333 16.1667C11.333 16.5348 11.0345 16.8333 10.6664 16.8333C10.2981 16.8333 9.99966 16.5348 9.99966 16.1667V12.1667C9.99966 11.7985 10.2981 11.5 10.6663 11.5C11.0345 11.5 11.333 11.7985 11.333 12.1667L11.333 16.1667ZM13.9997 16.1667C13.9997 16.5348 13.7012 16.8333 13.333 16.8333C12.9648 16.8333 12.6664 16.5348 12.6664 16.1667V12.1667C12.6664 11.7985 12.9648 11.5 13.333 11.5C13.7012 11.5 13.9997 11.7985 13.9997 12.1667V16.1667ZM9.49963 7.66666C9.49963 6.5 10.9996 5.5 11.9996 5.5C12.9996 5.5 14.4996 6.5 14.4996 7.66666H9.49963Z" fill="#8691AA"/>
</svg>
