<svg width="24" height="24" viewBox="0 0 24 24" fill="none" xmlns="http://www.w3.org/2000/svg">
<path d="M19.3943 14.5579L14.0037 6.04717C13.55 5.39352 12.7961 5 12.0022 5C11.2083 5 10.4544 5.38685 9.98071 6.06717L4.61677 14.5445C3.93627 15.5183 3.80951 16.6856 4.2832 17.586C4.7502 18.4864 5.73092 19 6.95849 19H17.0459C18.2801 19 19.2542 18.4864 19.7212 17.586C20.1882 16.6856 20.0614 15.525 19.3943 14.5579ZM11.335 9.00191C11.335 8.63506 11.6353 8.33492 12.0022 8.33492C12.3691 8.33492 12.6693 8.63506 12.6693 9.00191V13.0038C12.6693 13.3707 12.3691 13.6708 12.0022 13.6708C11.6353 13.6708 11.335 13.3707 11.335 13.0038V9.00191ZM12.0022 17.0057C11.4484 17.0057 11.0015 16.5588 11.0015 16.0052C11.0015 15.4516 11.4484 15.0048 12.0022 15.0048C12.5559 15.0048 13.0029 15.4516 13.0029 16.0052C13.0029 16.5588 12.5559 17.0057 12.0022 17.0057Z" fill="#F3C323"/>
<path d="M11.335 9.00191C11.335 8.63506 11.6353 8.33492 12.0022 8.33492C12.3691 8.33492 12.6693 8.63506 12.6693 9.00191V13.0038C12.6693 13.3707 12.3691 13.6708 12.0022 13.6708C11.6353 13.6708 11.335 13.3707 11.335 13.0038V9.00191Z" fill="#22252F"/>
<path d="M12.0022 17.0057C11.4484 17.0057 11.0015 16.5588 11.0015 16.0052C11.0015 15.4516 11.4484 15.0048 12.0022 15.0048C12.5559 15.0048 13.0029 15.4516 13.0029 16.0052C13.0029 16.5588 12.5559 17.0057 12.0022 17.0057Z" fill="#22252F"/>
</svg>
