<svg width="24" height="24" viewBox="0 0 24 24" fill="none" xmlns="http://www.w3.org/2000/svg">
<rect x="2.5" y="2.5" width="19" height="19" rx="9.5" fill="#C1D9C9"/>
<rect x="2.5" y="2.5" width="19" height="19" rx="9.5" stroke="#4B6B55"/>
<path d="M9.99979 14.334C8.33313 14.334 6.66646 11.0006 7.66659 8.33398L11.1392 8.33398H15.0202C15.9998 10.6673 14.3331 14.334 12.6665 14.334L11.3331 14.334L9.99979 14.334Z" fill="#181818"/>
<path d="M7.66683 16.0007H15.3334M7.66659 8.33398C6.66646 11.0006 8.33313 14.334 9.99979 14.334L11.3331 14.334L12.6665 14.334C14.3331 14.334 15.9998 10.6673 15.0202 8.33398H11.1392L7.66659 8.33398Z" stroke="#181818" stroke-width="0.75" stroke-linecap="round" stroke-linejoin="round"/>
<path d="M15.3333 10.5786C15.3333 10.5786 16.1163 10.0282 16.6667 10.5785C17.217 11.1288 17 12.2452 16.3333 12.5786C15.6667 12.9119 15 12.5786 15 12.5786" stroke="#181818" stroke-width="0.75" stroke-linecap="round" stroke-linejoin="round"/>
</svg>
