<svg width="24" height="24" viewBox="0 0 24 24" fill="none" xmlns="http://www.w3.org/2000/svg">
<rect x="2.5" y="2.5" width="19" height="19" rx="9.5" fill="#D5CAE0"/>
<rect x="2.5" y="2.5" width="19" height="19" rx="9.5" stroke="#594070"/>
<path d="M11.9942 15.1732V16.6654M11.9942 15.1732C13.4296 15.2015 16.3333 14.1561 16.3333 12.3145C16.3333 12.1249 16.3224 11.9273 16.3026 11.7245M11.9942 15.1732C10.4306 15.1425 7.66663 14.2902 7.66663 12.3152C7.66663 12.1249 7.67721 11.9273 7.6965 11.7252M8.9977 16.6654H14.9905M7.6965 11.7252C7.8935 9.66096 9.99662 7.33203 9.99662 7.33203H13.9919C13.9919 7.33203 16.1033 9.68523 16.3026 11.7245M7.6965 11.7252C7.6965 11.7252 8.99837 10.7888 9.99718 10.7888C10.996 10.7888 11.6613 12.1715 12.6601 12.1715C13.6589 12.1715 13.6595 11.1345 14.6583 11.1345C15.6571 11.1345 16.3026 11.7245 16.3026 11.7245" stroke="#181818" stroke-width="0.75" stroke-linecap="round" stroke-linejoin="round"/>
<path d="M7.66663 12.3154C7.66663 12.1251 7.67721 11.9275 7.6965 11.7255C7.6965 11.7255 8.99837 10.7891 9.99718 10.7891C10.996 10.7891 11.6613 12.1718 12.6601 12.1718C13.6589 12.1718 13.6595 11.1347 14.6583 11.1347C15.6571 11.1347 16.3026 11.7248 16.3026 11.7248C16.3224 11.9275 16.3333 12.1252 16.3333 12.3147C16.3333 14.1564 13.4296 15.2017 11.9942 15.1735C10.4306 15.1428 7.66663 14.2904 7.66663 12.3154Z" fill="#181818"/>
</svg>
