<svg width="44" height="44" viewBox="0 0 44 44" fill="none" xmlns="http://www.w3.org/2000/svg">
<path d="M16 10.2069C16 6.58621 18.5 4 22 4C25.5 4 28 6.58621 28 10.2069C28 14.8621 22 19 22 19C22 19 16 15.3793 16 10.2069Z" fill="#22252F" stroke="#22252F" stroke-linejoin="round"/>
<circle cx="22" cy="10" r="2.5" fill="#FAFAFA" stroke="#FAFAFA"/>
<path d="M18.2012 28.707V29.7324H21.6973V30.6016H13.6504V29.7324H17.127V28.707H18.2012ZM18.2109 26.3535C18.2109 27.3594 19.373 28.1992 21.2578 28.3848L20.877 29.2148C19.3975 29.0293 18.2256 28.4727 17.6641 27.6133C17.0879 28.4727 15.9209 29.0293 14.4414 29.2148L14.0605 28.3848C15.9453 28.1992 17.1074 27.3594 17.1074 26.3535V26.1191H18.2109V26.3535ZM20.6914 31.1387V33.3262H15.6719V33.9609H20.9355V34.791H14.6074V32.5547H19.627V31.9688H14.5977V31.1387H20.6914ZM29.8418 26.0508V30.8457H28.8066V28.8438H27.9277V30.7871H26.9121V26.2168H27.9277V27.9453H28.8066V26.0508H29.8418ZM26.1113 26.6367V30.4453H22.6348V26.6367H26.1113ZM23.6602 27.4863V29.5859H25.1055V27.4863H23.6602ZM24.959 31.2168V32.1055H28.7676V31.2168H29.8418V34.7617H23.8848V31.2168H24.959ZM24.959 33.8828H28.7676V32.9648H24.959V33.8828Z" fill="#343846"/>
</svg>
