<svg width="44" height="44" viewBox="0 0 44 44" fill="none" xmlns="http://www.w3.org/2000/svg">
<path fill-rule="evenodd" clip-rule="evenodd" d="M15.7309 9.04688C16.4612 6.25328 18.8588 4.39453 22 4.39453C25.1412 4.39453 27.5388 6.25328 28.2691 9.04688H24.6741C24.0875 8.19955 23.1086 7.64453 22 7.64453C20.8914 7.64453 19.9125 8.19955 19.3259 9.04688H15.7309ZM28.4177 9.77344H25.0515C25.1799 10.1229 25.25 10.5005 25.25 10.8945C25.25 12.6895 23.7949 14.1445 22 14.1445C20.2051 14.1445 18.75 12.6895 18.75 10.8945C18.75 10.5005 18.8201 10.1229 18.9485 9.77344H15.5823C15.528 10.1348 15.5 10.5091 15.5 10.8945C15.5 12.0925 15.8179 13.211 16.3132 14.2266H27.5737C28.1331 13.1804 28.5 12.0527 28.5 10.8945C28.5 10.5091 28.472 10.1348 28.4177 9.77344ZM16.7065 14.9531C18.586 18.1114 22 20.1029 22 20.1029C22 20.1029 25.243 17.9409 27.1476 14.9531H16.7065Z" fill="currentColor"/>
<path d="M18.0352 28.7656V29.9082H21.6191V30.5332H13.709V29.9082H17.2832V28.7656H18.0352ZM14.1484 28.6387C15.7354 28.4629 17.2734 27.6328 17.2734 26.5098V26.1777H18.0449V26.5098C18.0449 27.6328 19.5879 28.4629 21.1699 28.6387L20.8965 29.2246C19.5293 29.0391 18.2061 28.4482 17.6592 27.4961C17.1123 28.4482 15.7842 29.0391 14.4219 29.2246L14.1484 28.6387ZM14.666 31.8516V31.2559H20.6035V33.2285H15.4473V34.0879H20.8672V34.6934H14.6855V32.6523H19.8516V31.8516H14.666ZM29.7246 26.1191V30.8457H28.9922V28.7559H27.8398V30.7773H27.1172V26.2852H27.8398V28.1113H28.9922V26.1191H29.7246ZM22.752 30.3867V26.7246H26.1113V30.3867H22.752ZM23.4746 29.7617H25.3984V27.3398H23.4746V29.7617ZM24.002 34.6738V31.2363H24.7637V32.2715H28.9727V31.2363H29.7246V34.6738H24.002ZM24.7637 34.0488H28.9727V32.9062H24.7637V34.0488Z" fill="currentColor"/>
</svg>
