<svg width="44" height="44" viewBox="0 0 44 44" fill="none" xmlns="http://www.w3.org/2000/svg">
<path d="M16 10.2069C16 6.58621 18.5 4 22 4C25.5 4 28 6.58621 28 10.2069C28 14.8621 22 19 22 19C22 19 16 15.3793 16 10.2069Z" fill="#D5D8E2" stroke="#D5D8E2" stroke-linejoin="round"/>
<circle cx="22" cy="10" r="2.5" fill="#FAFAFA" stroke="#FAFAFA"/>
<path d="M18.0352 28.7656V29.9082H21.6191V30.5332H13.709V29.9082H17.2832V28.7656H18.0352ZM18.0449 26.5098C18.0449 27.6328 19.5879 28.4629 21.1699 28.6387L20.8965 29.2246C19.5293 29.0391 18.2061 28.4482 17.6641 27.4961C17.1074 28.4482 15.7793 29.0391 14.4219 29.2246L14.1484 28.6387C15.7305 28.4629 17.2734 27.6328 17.2734 26.5098V26.1777H18.0449V26.5098ZM20.6035 31.2559V33.2285H15.4473V34.0879H20.8672V34.6934H14.6855V32.6523H19.8516V31.8516H14.666V31.2559H20.6035ZM29.7246 26.1191V30.8457H28.9922V28.7559H27.8398V30.7773H27.1172V26.2852H27.8398V28.1113H28.9922V26.1191H29.7246ZM26.1113 26.7246V30.3867H22.752V26.7246H26.1113ZM23.4746 27.3398V29.7617H25.3984V27.3398H23.4746ZM24.7637 31.2363V32.2715H28.9727V31.2363H29.7246V34.6738H24.002V31.2363H24.7637ZM24.7637 34.0488H28.9727V32.9062H24.7637V34.0488Z" fill="#8691AA"/>
</svg>
