<svg width="44" height="44" viewBox="0 0 44 44" fill="none" xmlns="http://www.w3.org/2000/svg">
<path d="M13.6725 11.3829C12.7667 8.00216 14.6638 5.42326 17.0787 4.77622C19.4935 4.12917 22.4259 5.41397 23.3318 8.79471C24.4965 13.1414 20.8315 18.7821 20.8315 18.7821C20.8315 18.7821 14.9666 16.2125 13.6725 11.3829Z" fill="#8691AA" stroke="#8691AA" stroke-linejoin="round"/>
<path d="M21.5 8.76314C23.25 5.73205 26.4151 5.25 28.5801 6.5C30.7452 7.75 31.9103 10.7321 30.1603 13.7631C27.9103 17.6603 21.3301 19.0574 21.3301 19.0574C21.3301 19.0574 19 13.0933 21.5 8.76314Z" fill="#22252F" stroke="#22252F" stroke-linejoin="round"/>
<path d="M13.8799 28.707V29.7324H17.376V30.6016H9.3291V29.7324H12.8057V28.707H13.8799ZM13.8896 26.3535C13.8896 27.3594 15.0518 28.1992 16.9365 28.3848L16.5557 29.2148C15.0762 29.0293 13.9043 28.4727 13.3428 27.6133C12.7666 28.4727 11.5996 29.0293 10.1201 29.2148L9.73926 28.3848C11.624 28.1992 12.7861 27.3594 12.7861 26.3535V26.1191H13.8896V26.3535ZM16.3701 31.1387V33.3262H11.3506V33.9609H16.6143V34.791H10.2861V32.5547H15.3057V31.9688H10.2764V31.1387H16.3701ZM22.4639 26.9004V32.6816H18.2842V26.9004H22.4639ZM19.3486 27.75V31.8125H21.3799V27.75H19.3486ZM24.8857 26.041V29.4297H26.2432V30.3477H24.8857V34.8691H23.8018V26.041H24.8857ZM33.7725 26.8613V27.916C33.7725 29.1953 33.7725 30.416 33.3818 32.2812L32.2979 32.1836C32.4785 31.4121 32.5811 30.7334 32.6396 30.1035L27.4346 30.377L27.2881 29.498L32.6885 29.293C32.708 28.8193 32.708 28.3652 32.708 27.916V27.7402H27.5518V26.8613H33.7725ZM34.6611 32.8574V33.7461H26.6143V32.8574H34.6611Z" fill="#343846"/>
</svg>
