<svg width="44" height="44" viewBox="0 0 44 44" fill="none" xmlns="http://www.w3.org/2000/svg">
<path fill-rule="evenodd" clip-rule="evenodd" d="M22 10.7273C22 10.7273 22.0767 10.343 22.24 9.77345H29.992C29.9079 11.4545 29.1661 12.9521 28.1656 14.2266H15.8344C14.8339 12.9521 14.0921 11.4545 14.008 9.77345H21.76C21.9233 10.343 22 10.7273 22 10.7273ZM27.5475 14.9531H16.4525C18.8043 17.5172 22 19 22 19C22 19 25.1957 17.5172 27.5475 14.9531ZM26 5C27.8917 5 29.7834 6.70796 29.9827 9.04688H22.4669C23.0397 7.35698 24.1671 5 26 5ZM18 5C16.1083 5 14.2166 6.70796 14.0173 9.04688H21.5331C20.9603 7.35698 19.8329 5 18 5Z" fill="currentColor"/>
<path d="M13.7139 28.7656V29.9082H17.2979V30.5332H9.3877V29.9082H12.9619V28.7656H13.7139ZM9.82715 28.6387C11.4141 28.4629 12.9521 27.6328 12.9521 26.5098V26.1777H13.7236V26.5098C13.7236 27.6328 15.2666 28.4629 16.8486 28.6387L16.5752 29.2246C15.208 29.0391 13.8848 28.4482 13.3379 27.4961C12.791 28.4482 11.4629 29.0391 10.1006 29.2246L9.82715 28.6387ZM10.3447 31.8516V31.2559H16.2822V33.2285H11.126V34.0879H16.5459V34.6934H10.3643V32.6523H15.5303V31.8516H10.3447ZM22.3955 26.9883V32.584H18.3916V26.9883H22.3955ZM19.1338 31.959H21.6338V27.6035H19.1338V31.959ZM23.9873 34.791V26.1094H24.749V29.5762H26.2041V30.2402H24.749V34.791H23.9873ZM33.5967 26.998V28.0723C33.6016 29.3516 33.6016 30.5332 33.2354 32.291L32.4639 32.2227C32.6592 31.3877 32.752 30.665 32.8008 29.9912L27.5029 30.2793L27.3955 29.6445L32.835 29.4199C32.8496 28.9609 32.8545 28.5166 32.8545 28.0723V27.6426H27.6299V26.998H33.5967ZM26.6729 33.5703V32.9258H34.583V33.5703H26.6729Z" fill="currentColor"/>
</svg>
