<svg width="44" height="44" viewBox="0 0 44 44" fill="none" xmlns="http://www.w3.org/2000/svg">
<path d="M13.6725 11.3829C12.7667 8.00216 14.6638 5.42326 17.0787 4.77622C19.4935 4.12917 22.4259 5.41397 23.3318 8.79471C24.4965 13.1414 20.8315 18.7821 20.8315 18.7821C20.8315 18.7821 14.9666 16.2125 13.6725 11.3829Z" fill="#ECEEF2" stroke="#ECEEF2" stroke-linejoin="round"/>
<path d="M21.5 8.76314C23.25 5.73205 26.4151 5.25 28.5801 6.5C30.7452 7.75 31.9103 10.7321 30.1603 13.7631C27.9103 17.6603 21.3301 19.0574 21.3301 19.0574C21.3301 19.0574 19 13.0933 21.5 8.76314Z" fill="#D5D8E2" stroke="#D5D8E2" stroke-linejoin="round"/>
<path d="M13.7139 28.7656V29.9082H17.2979V30.5332H9.3877V29.9082H12.9619V28.7656H13.7139ZM13.7236 26.5098C13.7236 27.6328 15.2666 28.4629 16.8486 28.6387L16.5752 29.2246C15.208 29.0391 13.8848 28.4482 13.3428 27.4961C12.7861 28.4482 11.458 29.0391 10.1006 29.2246L9.82715 28.6387C11.4092 28.4629 12.9521 27.6328 12.9521 26.5098V26.1777H13.7236V26.5098ZM16.2822 31.2559V33.2285H11.126V34.0879H16.5459V34.6934H10.3643V32.6523H15.5303V31.8516H10.3447V31.2559H16.2822ZM22.3955 26.9883V32.584H18.3916V26.9883H22.3955ZM19.1338 27.6035V31.959H21.6338V27.6035H19.1338ZM24.749 26.1094V29.5762H26.2041V30.2402H24.749V34.791H23.9873V26.1094H24.749ZM33.5967 26.998V28.0723C33.5967 29.3516 33.5967 30.5332 33.2354 32.291L32.4639 32.2227C32.6543 31.3877 32.752 30.665 32.8057 29.9863L27.5029 30.2793L27.3955 29.6445L32.835 29.4199C32.8496 28.9609 32.8496 28.5166 32.8545 28.0723V27.6426H27.6299V26.998H33.5967ZM34.583 32.9258V33.5703H26.6729V32.9258H34.583Z" fill="#8691AA"/>
</svg>
