<svg width="44" height="44" viewBox="0 0 44 44" fill="none" xmlns="http://www.w3.org/2000/svg">
<path d="M29.5161 17.902L27.752 15.5745C27.4553 15.183 26.9926 14.9531 26.5014 14.9531H17.4735C16.9787 14.9531 16.5128 15.1866 16.2165 15.5829L14.4793 17.9072C14.0171 18.5255 14.4585 19.4062 15.2305 19.4062H28.7687C29.5435 19.4062 29.9842 18.5196 29.5161 17.9023V17.902Z" fill="currentColor"/>
<path d="M22.008 4.59375C23.2377 4.59375 24.2345 5.59055 24.2345 6.82031C24.2345 8.05008 23.2377 9.04688 22.008 9.04688C20.7782 9.04688 19.7814 8.05008 19.7814 6.82031C19.7814 5.59055 20.7782 4.59375 22.008 4.59375Z" fill="currentColor"/>
<path d="M23.9941 10.414C23.6882 10.0104 23.211 9.77344 22.7048 9.77344H22.0415H21.3325C20.8282 9.77344 20.3526 10.0087 20.0465 10.4098L17.5321 13.7044C17.3688 13.9184 17.5214 14.2266 17.7907 14.2266H26.2296C26.4982 14.2266 26.651 13.9193 26.4885 13.7051L23.9943 10.414H23.9941Z" fill="currentColor"/>
<path d="M17.3369 33.0234V33.6777H9.3877V33.0234H17.3369ZM10.0908 27.623V26.9883H16.5752V27.623H15.1982V30.6602H16.5557V31.2852H10.1104V30.6602H11.4678V27.623H10.0908ZM12.2295 30.6602H14.4463V27.623H12.2295V30.6602ZM25.9795 33.0723V33.7168H18.0303V33.0723H21.6045V31.4316H19.0264V28.7559H24.2217V27.3887H19.0068V26.7539H24.9736V29.3809H19.7881V30.7969H25.1787V31.4316H22.3564V33.0723H25.9795ZM33.8506 26.1094V30.6211H33.0791V26.1094H33.8506ZM26.8193 29.6738C27.166 29.6738 27.542 29.6689 27.9326 29.6641V27.3203H27.0635V26.7051H31.7607V27.3203H30.8818V29.5469C31.3311 29.5127 31.7705 29.4688 32.1904 29.4199L32.2295 29.9863C30.4912 30.2451 28.4502 30.3135 26.917 30.3086L26.8193 29.6738ZM28.167 31.6562V31.041H33.8506V33.1113H28.9482V34.0684H34.1826V34.6934H28.1963V32.5352H33.0889V31.6562H28.167ZM28.6748 29.6494C29.1533 29.6348 29.6465 29.6201 30.1396 29.5908V27.3203H28.6748V29.6494Z" fill="currentColor"/>
</svg>
