<svg width="44" height="44" viewBox="0 0 44 44" fill="none" xmlns="http://www.w3.org/2000/svg">
<path d="M16 18.2069C16 14.5862 18.5 12 22 12C25.5 12 28 14.5862 28 18.2069C28 21 22 21 22 21C22 21 16 21 16 18.2069Z" fill="#D5D8E2" stroke="#D5D8E2" stroke-linejoin="round"/>
<circle cx="22" cy="7" r="2.5" fill="#ECEEF2" stroke="#ECEEF2"/>
<path d="M17.3369 33.0234V33.6777H9.3877V33.0234H17.3369ZM16.5752 26.9883V27.623H15.1982V30.6602H16.5557V31.2852H10.1104V30.6602H11.4678V27.623H10.0908V26.9883H16.5752ZM12.2295 30.6602H14.4463V27.623H12.2295V30.6602ZM25.9795 33.0723V33.7168H18.0303V33.0723H21.6045V31.4316H19.0264V28.7559H24.2217V27.3887H19.0068V26.7539H24.9736V29.3809H19.7881V30.7969H25.1787V31.4316H22.3564V33.0723H25.9795ZM33.8506 26.1094V30.6211H33.0791V26.1094H33.8506ZM33.8506 31.041V33.1113H28.9482V34.0684H34.1826V34.6934H28.1963V32.5352H33.0889V31.6562H28.167V31.041H33.8506ZM31.7607 26.7051V27.3203H30.8818V29.5371C31.3311 29.5127 31.7754 29.4688 32.1904 29.4199L32.2295 29.9863C30.4912 30.2402 28.4502 30.3086 26.917 30.3086L26.8193 29.6738L27.9326 29.6641V27.3203H27.0635V26.7051H31.7607ZM28.6748 29.6445C29.1533 29.6348 29.6465 29.6201 30.1396 29.5859V27.3203H28.6748V29.6445Z" fill="#8691AA"/>
</svg>
