<svg width="44" height="44" viewBox="0 0 44 44" fill="none" xmlns="http://www.w3.org/2000/svg">
<g clip-path="url(#clip0_259_17562)">
<path d="M17 9.5C17 6 19.5 4 22 4C24.5 4 27 6 27 9.5C27 14 22 18.5 22 18.5C22 18.5 17 14.5 17 9.5Z" fill="#ECEEF2" stroke="#ECEEF2" stroke-linejoin="round"/>
<path d="M24.7942 9.75C27.8253 8 30.8074 9.16506 32.0574 11.3301C33.3074 13.4952 32.8253 16.6603 29.7942 18.4103C25.8971 20.6603 19.5 18.5801 19.5 18.5801C19.5 18.5801 20.4641 12.25 24.7942 9.75Z" fill="#ECEEF2" stroke="#ECEEF2" stroke-linejoin="round"/>
<path d="M14.7631 19.4102C11.7321 17.6602 11.25 14.4951 12.5 12.33C13.75 10.165 16.7321 8.9999 19.7631 10.7499C23.6603 12.9999 25.0574 19.58 25.0574 19.58C25.0574 19.58 19.0933 21.9102 14.7631 19.4102Z" fill="#D5D8E2" stroke="#D5D8E2" stroke-linejoin="round"/>
</g>
<path d="M13.7139 28.7656V29.9082H17.2979V30.5332H9.3877V29.9082H12.9619V28.7656H13.7139ZM13.7236 26.5098C13.7236 27.6328 15.2666 28.4629 16.8486 28.6387L16.5752 29.2246C15.208 29.0391 13.8848 28.4482 13.3428 27.4961C12.7861 28.4482 11.458 29.0391 10.1006 29.2246L9.82715 28.6387C11.4092 28.4629 12.9521 27.6328 12.9521 26.5098V26.1777H13.7236V26.5098ZM16.2822 31.2559V33.2285H11.126V34.0879H16.5459V34.6934H10.3643V32.6523H15.5303V31.8516H10.3447V31.2559H16.2822ZM25.4033 31.959V34.791H24.6514V32.5742H19.5537V31.959H25.4033ZM21.5068 26.7734V29.1855H19.1729V30.4941C20.3105 30.4893 21.1602 30.4355 22.1904 30.2207L22.2783 30.8555C21.165 31.0605 20.2471 31.1191 18.9873 31.1094H18.4307V28.6094H20.7744V27.3984H18.4111V26.7734H21.5068ZM25.4033 26.1191V31.5195H24.6709V26.1191H25.4033ZM23.6846 26.2852V31.4609H22.9521V28.9805H21.8486V28.3457H22.9521V26.2852H23.6846ZM33.7041 30.8066V31.4316H27.6982V26.8613H33.6064V27.5059H28.4795V28.7949H33.4209V29.4102H28.4795V30.8066H33.7041ZM34.6221 33.0234V33.6582H26.6729V33.0234H34.6221Z" fill="#8691AA"/>
<defs>
<clipPath id="clip0_259_17562">
<rect width="24" height="24" fill="white" transform="translate(10)"/>
</clipPath>
</defs>
</svg>
