<svg width="44" height="44" viewBox="0 0 44 44" fill="none" xmlns="http://www.w3.org/2000/svg">
<g clip-path="url(#clip0_259_17562)">
<path d="M17 9.5C17 6 19.5 4 22 4C24.5 4 27 6 27 9.5C27 14 22 18.5 22 18.5C22 18.5 17 14.5 17 9.5Z" fill="#ECEEF2" stroke="#ECEEF2" stroke-linejoin="round"/>
<path d="M24.7942 9.75C27.8253 8 30.8074 9.16506 32.0574 11.3301C33.3074 13.4952 32.8253 16.6603 29.7942 18.4103C25.8971 20.6603 19.5 18.5801 19.5 18.5801C19.5 18.5801 20.4641 12.25 24.7942 9.75Z" fill="#ECEEF2" stroke="#ECEEF2" stroke-linejoin="round"/>
<path d="M14.7631 19.4102C11.7321 17.6602 11.25 14.4951 12.5 12.33C13.75 10.165 16.7321 8.9999 19.7631 10.7499C23.6603 12.9999 25.0574 19.58 25.0574 19.58C25.0574 19.58 19.0933 21.9102 14.7631 19.4102Z" fill="#D5D8E2" stroke="#D5D8E2" stroke-linejoin="round"/>
</g>
<path d="M12.0342 28.6953C12.0342 29.2324 12.5029 29.9648 13.3428 30.3652C14.1729 29.9746 14.6416 29.2568 14.6416 28.6953V28.1973H15.4033V28.6953C15.4033 29.4473 15.9795 30.2383 17.0537 30.5801L16.6826 31.1562C15.8428 30.8682 15.2764 30.2969 15.0127 29.6426C14.7246 30.248 14.1729 30.8145 13.3428 31.0977C12.498 30.8096 11.9463 30.2236 11.6729 29.6133C11.3896 30.2578 10.8232 30.8535 9.99316 31.1562L9.62207 30.5801C10.6768 30.209 11.2725 29.3594 11.2725 28.6953V28.1973H12.0342V28.6953ZM13.7236 31.1953V31.9082H17.2979V32.5332H9.3877V31.9082H12.9619V31.1953H13.7236ZM16.2822 33.2266V35.1895H11.126V36.0879H16.5459V36.6934H10.3643V34.623H15.5303V33.8223H10.3447V33.2266H16.2822ZM25.4033 33.959V36.791H24.6514V34.5742H19.5537V33.959H25.4033ZM21.5068 28.7734V31.1855H19.1729V32.4941C20.3105 32.4893 21.1602 32.4355 22.1904 32.2207L22.2783 32.8555C21.165 33.0605 20.2471 33.1191 18.9873 33.1094H18.4307V30.6094H20.7744V29.3984H18.4111V28.7734H21.5068ZM25.4033 28.1191V33.5195H24.6709V28.1191H25.4033ZM23.6846 28.2852V33.4609H22.9521V30.9805H21.8486V30.3457H22.9521V28.2852H23.6846ZM33.7041 32.8066V33.4316H27.6982V28.8613H33.6064V29.5059H28.4795V30.7949H33.4209V31.4102H28.4795V32.8066H33.7041ZM34.6221 35.0234V35.6582H26.6729V35.0234H34.6221Z" fill="#8691AA"/>
<defs>
<clipPath id="clip0_259_17562">
<rect width="24" height="24" fill="white" transform="translate(10)"/>
</clipPath>
</defs>
</svg>
