<svg width="44" height="44" viewBox="0 0 44 44" fill="none" xmlns="http://www.w3.org/2000/svg">
<path d="M13.3516 15.5703C13.3516 17.9131 15.2509 19.8125 17.5938 19.8125H26.2422V19.801C28.611 19.6388 30.5008 17.7343 30.6398 15.3594H13.3574C13.3539 15.4292 13.3516 15.4995 13.3516 15.5703Z" fill="currentColor"/>
<path d="M15.2301 10.1797C15.2477 10.7652 15.3651 11.3253 15.5659 11.8438C14.5115 12.4191 13.7287 13.4291 13.457 14.6328H30.6283C30.4037 12.227 28.3795 10.3438 25.915 10.3438C25.6959 10.3438 25.4805 10.359 25.2693 10.3878C25.2742 10.3189 25.2775 10.2495 25.2798 10.1797H15.2301Z" fill="currentColor"/>
<path d="M20.2543 5C17.672 5 15.5448 6.94695 15.2598 9.45312H25.2488C24.9638 6.94695 22.8366 5 20.2543 5Z" fill="currentColor"/>
<path d="M13.7139 28.7656V29.9082H17.2979V30.5332H9.3877V29.9082H12.9619V28.7656H13.7139ZM9.82715 28.6387C11.4141 28.4629 12.9521 27.6328 12.9521 26.5098V26.1777H13.7236V26.5098C13.7236 27.6328 15.2666 28.4629 16.8486 28.6387L16.5752 29.2246C15.208 29.0391 13.8848 28.4482 13.3379 27.4961C12.791 28.4482 11.4629 29.0391 10.1006 29.2246L9.82715 28.6387ZM10.3447 31.8516V31.2559H16.2822V33.2285H11.126V34.0879H16.5459V34.6934H10.3643V32.6523H15.5303V31.8516H10.3447ZM25.4033 31.959V34.791H24.6514V32.5742H19.5537V31.959H25.4033ZM18.4111 27.3984V26.7734H21.5068V29.1855H19.1729V30.4941C20.3057 30.4893 21.165 30.4355 22.1904 30.2207L22.2783 30.8555C21.165 31.0654 20.2471 31.1191 18.9873 31.1094H18.4307V28.6094H20.7744V27.3984H18.4111ZM21.8486 28.9805V28.3457H22.9521V26.2852H23.6846V31.4609H22.9521V28.9805H21.8486ZM24.6709 31.5195V26.1191H25.4033V31.5195H24.6709ZM33.7041 30.8066V31.4316H27.6982V26.8613H33.6064V27.5059H28.4795V28.7949H33.4209V29.4102H28.4795V30.8066H33.7041ZM26.6729 33.6582V33.0234H34.6221V33.6582H26.6729Z" fill="currentColor"/>
</svg>
