<svg width="44" height="44" viewBox="0 0 44 44" fill="none" xmlns="http://www.w3.org/2000/svg">
<g clip-path="url(#clip0_259_17577)">
<path d="M17 9.5C17 6 19.5 4 22 4C24.5 4 27 6 27 9.5C27 14 22 18.5 22 18.5C22 18.5 17 14.5 17 9.5Z" fill="#8691AA" stroke="#8691AA" stroke-linejoin="round"/>
<path d="M24.7942 9.75C27.8253 8 30.8074 9.16506 32.0574 11.3301C33.3074 13.4952 32.8253 16.6603 29.7942 18.4103C25.8971 20.6603 19.5 18.5801 19.5 18.5801C19.5 18.5801 20.4641 12.25 24.7942 9.75Z" fill="#8691AA" stroke="#8691AA" stroke-linejoin="round"/>
<path d="M14.7631 19.4102C11.7321 17.6602 11.25 14.4951 12.5 12.33C13.75 10.165 16.7321 8.9999 19.7631 10.7499C23.6603 12.9999 25.0574 19.58 25.0574 19.58C25.0574 19.58 19.0933 21.9102 14.7631 19.4102Z" fill="#22252F" stroke="#22252F" stroke-linejoin="round"/>
</g>
<path d="M13.8799 28.707V29.7324H17.376V30.6016H9.3291V29.7324H12.8057V28.707H13.8799ZM13.8896 26.3535C13.8896 27.3594 15.0518 28.1992 16.9365 28.3848L16.5557 29.2148C15.0762 29.0293 13.9043 28.4727 13.3428 27.6133C12.7666 28.4727 11.5996 29.0293 10.1201 29.2148L9.73926 28.3848C11.624 28.1992 12.7861 27.3594 12.7861 26.3535V26.1191H13.8896V26.3535ZM16.3701 31.1387V33.3262H11.3506V33.9609H16.6143V34.791H10.2861V32.5547H15.3057V31.9688H10.2764V31.1387H16.3701ZM25.5205 31.9199V34.8691H24.4365V32.7891H19.4951V31.9199H25.5205ZM21.4678 26.7051V29.3027H19.3975V30.3184C20.418 30.3135 21.1797 30.2549 22.0732 30.0938L22.1807 30.9531C21.1357 31.1484 20.2373 31.1875 18.9385 31.1875H18.3428V28.5117H20.4229V27.5645H18.333V26.7051H21.4678ZM25.5205 26.0508V31.5293H24.4854V26.0508H25.5205ZM23.7334 26.2168V31.4902H22.708V29.0781H21.79V28.1992H22.708V26.2168H23.7334ZM33.792 30.6699V31.5293H27.6006V26.7344H33.7139V27.6133H28.7041V28.6777H33.5088V29.5273H28.7041V30.6699H33.792ZM34.6807 32.9062V33.7949H26.6143V32.9062H34.6807Z" fill="#343846"/>
<defs>
<clipPath id="clip0_259_17577">
<rect width="24" height="24" fill="white" transform="translate(10)"/>
</clipPath>
</defs>
</svg>
