<svg width="44" height="44" viewBox="0 0 44 44" fill="none" xmlns="http://www.w3.org/2000/svg">
<g clip-path="url(#clip0_259_17577)">
<path d="M17 9.5C17 6 19.5 4 22 4C24.5 4 27 6 27 9.5C27 14 22 18.5 22 18.5C22 18.5 17 14.5 17 9.5Z" fill="#8691AA" stroke="#8691AA" stroke-linejoin="round"/>
<path d="M24.7942 9.75C27.8253 8 30.8074 9.16506 32.0574 11.3301C33.3074 13.4952 32.8253 16.6603 29.7942 18.4103C25.8971 20.6603 19.5 18.5801 19.5 18.5801C19.5 18.5801 20.4641 12.25 24.7942 9.75Z" fill="#8691AA" stroke="#8691AA" stroke-linejoin="round"/>
<path d="M14.7631 19.4102C11.7321 17.6602 11.25 14.4951 12.5 12.33C13.75 10.165 16.7321 8.9999 19.7631 10.7499C23.6603 12.9999 25.0574 19.58 25.0574 19.58C25.0574 19.58 19.0933 21.9102 14.7631 19.4102Z" fill="#22252F" stroke="#22252F" stroke-linejoin="round"/>
</g>
<path d="M12.1807 28.4805C12.1807 29.0322 12.5713 29.6768 13.3428 30.0527C14.1143 29.6768 14.4951 29.0469 14.4951 28.4805V28.1289H15.5986V28.4805C15.5986 29.252 16.0967 30.0039 17.21 30.3262L16.7021 31.127C15.8623 30.8682 15.3154 30.3408 15.0322 29.6914C14.7295 30.292 14.1875 30.8047 13.3428 31.0586C12.498 30.8047 11.9609 30.2871 11.6631 29.6914C11.3652 30.3262 10.8184 30.8584 9.9834 31.127L9.48535 30.3262C10.5791 29.9844 11.1064 29.1934 11.1064 28.4805V28.1289H12.1807V28.4805ZM13.8896 31.0977V31.7227H17.376V32.582H9.3291V31.7227H12.8057V31.0977H13.8896ZM16.3701 33.1191V35.2969H11.3506V35.9609H16.6143V36.791H10.2861V34.5254H15.3057V33.9395H10.2764V33.1191H16.3701ZM25.5205 33.9199V36.8691H24.4365V34.7891H19.4951V33.9199H25.5205ZM21.4678 28.7051V31.3027H19.3975V32.3184C20.418 32.3135 21.1797 32.2549 22.0732 32.0938L22.1807 32.9531C21.1357 33.1484 20.2373 33.1875 18.9385 33.1875H18.3428V30.5117H20.4229V29.5645H18.333V28.7051H21.4678ZM25.5205 28.0508V33.5293H24.4854V28.0508H25.5205ZM23.7334 28.2168V33.4902H22.708V31.0781H21.79V30.1992H22.708V28.2168H23.7334ZM33.792 32.6699V33.5293H27.6006V28.7344H33.7139V29.6133H28.7041V30.6777H33.5088V31.5273H28.7041V32.6699H33.792ZM34.6807 34.9062V35.7949H26.6143V34.9062H34.6807Z" fill="#343846"/>
<defs>
<clipPath id="clip0_259_17577">
<rect width="24" height="24" fill="white" transform="translate(10)"/>
</clipPath>
</defs>
</svg>
