<svg width="44" height="44" viewBox="0 0 44 44" fill="none" xmlns="http://www.w3.org/2000/svg">
<path d="M22 14C22 14 31 16.5 31 18C31 19.5 24 22 22 22C20 22 13 19.5 13 18C13 16.5 22 14 22 14Z" fill="#ECEEF2"/>
<path fill-rule="evenodd" clip-rule="evenodd" d="M22 2C25.792 2 28.5 4.82631 28.5 8.70703C28.4999 11.2337 26.8843 13.5536 25.3662 15.1895C24.5968 16.0185 23.8288 16.6972 23.2539 17.168C22.9663 17.4035 22.726 17.5877 22.5566 17.7139C22.4719 17.777 22.4048 17.8262 22.3584 17.8594C22.3352 17.8759 22.3172 17.8887 22.3047 17.8975C22.2985 17.9018 22.2935 17.9048 22.29 17.9072L22.2861 17.9102L22.2842 17.9111C22.1426 18.0088 21.9622 18.0262 21.8066 17.9609L21.7412 17.9277L21.7393 17.9268L21.7354 17.9238C21.7317 17.9216 21.7261 17.919 21.7197 17.915C21.7069 17.9071 21.6884 17.8956 21.665 17.8809C21.618 17.8511 21.5501 17.8077 21.4648 17.751C21.2941 17.6374 21.0529 17.47 20.7637 17.2539C20.1857 16.8221 19.4138 16.1905 18.6406 15.3906C17.1072 13.8043 15.5001 11.4863 15.5 8.70703C15.5 4.82631 18.208 2 22 2ZM22 5.5C20.3431 5.5 19 6.84315 19 8.5C19 10.1569 20.3431 11.5 22 11.5C23.6569 11.5 25 10.1569 25 8.5C25 6.84315 23.6569 5.5 22 5.5Z" fill="#D5D8E2"/>
<path d="M16.3555 28.6953C16.3555 29.2324 16.8242 29.9648 17.6641 30.3652C18.4941 29.9746 18.9629 29.2568 18.9629 28.6953V28.1973H19.7246V28.6953C19.7246 29.4473 20.3008 30.2383 21.375 30.5801L21.0039 31.1562C20.1641 30.8682 19.5977 30.2969 19.334 29.6426C19.0459 30.248 18.4941 30.8145 17.6641 31.0977C16.8193 30.8096 16.2676 30.2236 15.9941 29.6133C15.7109 30.2578 15.1445 30.8535 14.3145 31.1562L13.9434 30.5801C14.998 30.209 15.5938 29.3594 15.5938 28.6953V28.1973H16.3555V28.6953ZM18.0449 31.1953V31.9082H21.6191V32.5332H13.709V31.9082H17.2832V31.1953H18.0449ZM20.6035 33.2266V35.1895H15.4473V36.0879H20.8672V36.6934H14.6855V34.623H19.8516V33.8223H14.666V33.2266H20.6035ZM29.7246 28.1191V32.8457H28.9922V30.7559H27.8398V32.7773H27.1172V28.2852H27.8398V30.1113H28.9922V28.1191H29.7246ZM26.1113 28.7246V32.3867H22.752V28.7246H26.1113ZM23.4746 29.3398V31.7617H25.3984V29.3398H23.4746ZM24.7637 33.2363V34.2715H28.9727V33.2363H29.7246V36.6738H24.002V33.2363H24.7637ZM24.7637 36.0488H28.9727V34.9062H24.7637V36.0488Z" fill="#8691AA"/>
</svg>
