<svg width="44" height="44" viewBox="0 0 44 44" fill="none" xmlns="http://www.w3.org/2000/svg">
<path d="M22 14C22 14 31 16.5 31 18C31 19.5 24 22 22 22C20 22 13 19.5 13 18C13 16.5 22 14 22 14Z" fill="#8691AA"/>
<path fill-rule="evenodd" clip-rule="evenodd" d="M22 2C25.792 2 28.5 4.82631 28.5 8.70703C28.4999 11.2337 26.8843 13.5536 25.3662 15.1895C24.5968 16.0185 23.8288 16.6972 23.2539 17.168C22.9663 17.4035 22.726 17.5877 22.5566 17.7139C22.4719 17.777 22.4048 17.8262 22.3584 17.8594C22.3352 17.8759 22.3172 17.8887 22.3047 17.8975C22.2985 17.9018 22.2935 17.9048 22.29 17.9072L22.2861 17.9102L22.2842 17.9111C22.1426 18.0088 21.9622 18.0262 21.8066 17.9609L21.7412 17.9277L21.7393 17.9268L21.7354 17.9238C21.7317 17.9216 21.7261 17.919 21.7197 17.915C21.7069 17.9071 21.6884 17.8956 21.665 17.8809C21.618 17.8511 21.5501 17.8077 21.4648 17.751C21.2941 17.6374 21.0529 17.47 20.7637 17.2539C20.1857 16.8221 19.4138 16.1905 18.6406 15.3906C17.1072 13.8043 15.5001 11.4863 15.5 8.70703C15.5 4.82631 18.208 2 22 2ZM22 5.5C20.3431 5.5 19 6.84315 19 8.5C19 10.1569 20.3431 11.5 22 11.5C23.6569 11.5 25 10.1569 25 8.5C25 6.84315 23.6569 5.5 22 5.5Z" fill="#22252F"/>
<path d="M16.502 28.4805C16.502 29.0322 16.8926 29.6768 17.6641 30.0527C18.4355 29.6768 18.8164 29.0469 18.8164 28.4805V28.1289H19.9199V28.4805C19.9199 29.252 20.418 30.0039 21.5312 30.3262L21.0234 31.127C20.1836 30.8682 19.6367 30.3408 19.3535 29.6914C19.0508 30.292 18.5088 30.8047 17.6641 31.0586C16.8193 30.8047 16.2822 30.2871 15.9844 29.6914C15.6865 30.3262 15.1396 30.8584 14.3047 31.127L13.8066 30.3262C14.9004 29.9844 15.4277 29.1934 15.4277 28.4805V28.1289H16.502V28.4805ZM18.2109 31.0977V31.7227H21.6973V32.582H13.6504V31.7227H17.127V31.0977H18.2109ZM20.6914 33.1191V35.2969H15.6719V35.9609H20.9355V36.791H14.6074V34.5254H19.627V33.9395H14.5977V33.1191H20.6914ZM29.8418 28.0508V32.8457H28.8066V30.8438H27.9277V32.7871H26.9121V28.2168H27.9277V29.9453H28.8066V28.0508H29.8418ZM26.1113 28.6367V32.4453H22.6348V28.6367H26.1113ZM23.6602 29.4863V31.5859H25.1055V29.4863H23.6602ZM24.959 33.2168V34.1055H28.7676V33.2168H29.8418V36.7617H23.8848V33.2168H24.959ZM24.959 35.8828H28.7676V34.9648H24.959V35.8828Z" fill="#343846"/>
</svg>
