<svg width="44" height="44" viewBox="0 0 44 44" fill="none" xmlns="http://www.w3.org/2000/svg">
<path d="M13.6725 11.3829C12.7667 8.00216 14.6638 5.42326 17.0787 4.77622C19.4935 4.12917 22.4259 5.41397 23.3318 8.79471C24.4965 13.1414 20.8315 18.7821 20.8315 18.7821C20.8315 18.7821 14.9666 16.2125 13.6725 11.3829Z" fill="#8691AA" stroke="#8691AA" stroke-linejoin="round"/>
<path d="M21.5 8.76314C23.25 5.73205 26.4151 5.25 28.5801 6.5C30.7452 7.75 31.9103 10.7321 30.1603 13.7631C27.9103 17.6603 21.3301 19.0574 21.3301 19.0574C21.3301 19.0574 19 13.0933 21.5 8.76314Z" fill="#22252F" stroke="#22252F" stroke-linejoin="round"/>
<path d="M12.1807 28.4805C12.1807 29.0322 12.5713 29.6768 13.3428 30.0527C14.1143 29.6768 14.4951 29.0469 14.4951 28.4805V28.1289H15.5986V28.4805C15.5986 29.252 16.0967 30.0039 17.21 30.3262L16.7021 31.127C15.8623 30.8682 15.3154 30.3408 15.0322 29.6914C14.7295 30.292 14.1875 30.8047 13.3428 31.0586C12.498 30.8047 11.9609 30.2871 11.6631 29.6914C11.3652 30.3262 10.8184 30.8584 9.9834 31.127L9.48535 30.3262C10.5791 29.9844 11.1064 29.1934 11.1064 28.4805V28.1289H12.1807V28.4805ZM13.8896 31.0977V31.7227H17.376V32.582H9.3291V31.7227H12.8057V31.0977H13.8896ZM16.3701 33.1191V35.2969H11.3506V35.9609H16.6143V36.791H10.2861V34.5254H15.3057V33.9395H10.2764V33.1191H16.3701ZM22.4639 28.9004V34.6816H18.2842V28.9004H22.4639ZM19.3486 29.75V33.8125H21.3799V29.75H19.3486ZM24.8857 28.041V31.4297H26.2432V32.3477H24.8857V36.8691H23.8018V28.041H24.8857ZM33.7725 28.8613V29.916C33.7725 31.1953 33.7725 32.416 33.3818 34.2812L32.2979 34.1836C32.4785 33.4121 32.5811 32.7334 32.6396 32.1035L27.4346 32.377L27.2881 31.498L32.6885 31.293C32.708 30.8193 32.708 30.3652 32.708 29.916V29.7402H27.5518V28.8613H33.7725ZM34.6611 34.8574V35.7461H26.6143V34.8574H34.6611Z" fill="#343846"/>
</svg>
