<svg width="44" height="44" viewBox="0 0 44 44" fill="none" xmlns="http://www.w3.org/2000/svg">
<path d="M13.6725 11.3829C12.7667 8.00216 14.6638 5.42326 17.0787 4.77622C19.4935 4.12917 22.4259 5.41397 23.3318 8.79471C24.4965 13.1414 20.8315 18.7821 20.8315 18.7821C20.8315 18.7821 14.9666 16.2125 13.6725 11.3829Z" fill="#ECEEF2" stroke="#ECEEF2" stroke-linejoin="round"/>
<path d="M21.5 8.76314C23.25 5.73205 26.4151 5.25 28.5801 6.5C30.7452 7.75 31.9103 10.7321 30.1603 13.7631C27.9103 17.6603 21.3301 19.0574 21.3301 19.0574C21.3301 19.0574 19 13.0933 21.5 8.76314Z" fill="#D5D8E2" stroke="#D5D8E2" stroke-linejoin="round"/>
<path d="M12.0342 28.6953C12.0342 29.2324 12.5029 29.9648 13.3428 30.3652C14.1729 29.9746 14.6416 29.2568 14.6416 28.6953V28.1973H15.4033V28.6953C15.4033 29.4473 15.9795 30.2383 17.0537 30.5801L16.6826 31.1562C15.8428 30.8682 15.2764 30.2969 15.0127 29.6426C14.7246 30.248 14.1729 30.8145 13.3428 31.0977C12.498 30.8096 11.9463 30.2236 11.6729 29.6133C11.3896 30.2578 10.8232 30.8535 9.99316 31.1562L9.62207 30.5801C10.6768 30.209 11.2725 29.3594 11.2725 28.6953V28.1973H12.0342V28.6953ZM13.7236 31.1953V31.9082H17.2979V32.5332H9.3877V31.9082H12.9619V31.1953H13.7236ZM16.2822 33.2266V35.1895H11.126V36.0879H16.5459V36.6934H10.3643V34.623H15.5303V33.8223H10.3447V33.2266H16.2822ZM22.3955 28.9883V34.584H18.3916V28.9883H22.3955ZM19.1338 29.6035V33.959H21.6338V29.6035H19.1338ZM24.749 28.1094V31.5762H26.2041V32.2402H24.749V36.791H23.9873V28.1094H24.749ZM33.5967 28.998V30.0723C33.5967 31.3516 33.5967 32.5332 33.2354 34.291L32.4639 34.2227C32.6543 33.3877 32.752 32.665 32.8057 31.9863L27.5029 32.2793L27.3955 31.6445L32.835 31.4199C32.8496 30.9609 32.8496 30.5166 32.8545 30.0723V29.6426H27.6299V28.998H33.5967ZM34.583 34.9258V35.5703H26.6729V34.9258H34.583Z" fill="#8691AA"/>
</svg>
