<svg width="44" height="44" viewBox="0 0 44 44" fill="none" xmlns="http://www.w3.org/2000/svg">
<path d="M21 18.5H26C26 18.5 30 18.25 30 15.25C30 12.25 26 12 26 12H18C18 12 14 11.7503 14 8.75C14 5.74968 18 5.5 18 5.5L23 5.5" stroke="#ECEEF2" stroke-width="3" stroke-linecap="round"/>
<path fill-rule="evenodd" clip-rule="evenodd" d="M15 14.5C16.7498 14.5002 17.9998 15.804 18 17.5947C18 18.7608 17.2543 19.8319 16.5537 20.5869C16.1986 20.9695 15.8434 21.2827 15.5781 21.5C15.4456 21.6085 15.3349 21.6938 15.2568 21.752C15.2178 21.781 15.1864 21.804 15.165 21.8193C15.1546 21.8268 15.1464 21.8329 15.1406 21.8369C15.1378 21.8389 15.1354 21.8407 15.1338 21.8418L15.1318 21.8428L15.1309 21.8438C15.0563 21.8951 14.9584 21.8973 14.8809 21.8506L14.877 21.8496C14.8753 21.8486 14.8729 21.8464 14.8701 21.8447C14.8643 21.8411 14.8561 21.8357 14.8457 21.8291C14.824 21.8154 14.7921 21.7956 14.7529 21.7695C14.6741 21.7171 14.5622 21.6398 14.4287 21.54C14.162 21.3408 13.806 21.0488 13.4492 20.6797C12.7415 19.9476 12 18.8774 12 17.5947C12.0002 15.804 13.2501 14.5001 15 14.5ZM15 16.1152C14.3096 16.1152 13.75 16.6749 13.75 17.3652C13.75 18.0556 14.3096 18.6152 15 18.6152C15.6904 18.6152 16.25 18.0556 16.25 17.3652C16.25 16.6749 15.6904 16.1152 15 16.1152Z" fill="#D5D8E2"/>
<path fill-rule="evenodd" clip-rule="evenodd" d="M29 2C30.7501 2 32 3.23653 32 4.93437C32 6.03981 31.2543 7.05478 30.5536 7.77048C30.1985 8.1332 29.844 8.43012 29.5787 8.6361C29.446 8.73912 29.3351 8.81973 29.2569 8.87493C29.2178 8.90256 29.1868 8.92406 29.1654 8.93859C29.1547 8.94584 29.1464 8.95141 29.1406 8.95525C29.1378 8.95715 29.1355 8.95848 29.1339 8.95953L29.1321 8.96081L29.1312 8.96124C29.0658 9.00395 28.9826 9.01159 28.9108 8.98303L28.8806 8.9685L28.8797 8.96807L28.8779 8.96679C28.8762 8.96583 28.8736 8.96467 28.8706 8.96294C28.8647 8.95948 28.8562 8.95445 28.8454 8.94799C28.8237 8.93499 28.7924 8.91598 28.753 8.89117C28.6742 8.8415 28.5629 8.76822 28.4294 8.67369C28.1626 8.48478 27.8064 8.20843 27.4495 7.8585C26.7418 7.16448 26 6.15032 26 4.93437C26 3.23653 27.2499 2 29 2ZM29 3.53128C28.2353 3.53128 27.6154 4.11891 27.6154 4.8438C27.6154 5.56868 28.2353 6.15632 29 6.15632C29.7647 6.15632 30.3846 5.56868 30.3846 4.8438C30.3846 4.11891 29.7647 3.53128 29 3.53128Z" fill="#D5D8E2"/>
<path d="M12.0342 28.6953C12.0342 29.2324 12.5029 29.9648 13.3428 30.3652C14.1729 29.9746 14.6416 29.2568 14.6416 28.6953V28.1973H15.4033V28.6953C15.4033 29.4473 15.9795 30.2383 17.0537 30.5801L16.6826 31.1562C15.8428 30.8682 15.2764 30.2969 15.0127 29.6426C14.7246 30.248 14.1729 30.8145 13.3428 31.0977C12.498 30.8096 11.9463 30.2236 11.6729 29.6133C11.3896 30.2578 10.8232 30.8535 9.99316 31.1562L9.62207 30.5801C10.6768 30.209 11.2725 29.3594 11.2725 28.6953V28.1973H12.0342V28.6953ZM13.7236 31.1953V31.9082H17.2979V32.5332H9.3877V31.9082H12.9619V31.1953H13.7236ZM16.2822 33.2266V35.1895H11.126V36.0879H16.5459V36.6934H10.3643V34.623H15.5303V33.8223H10.3447V33.2266H16.2822ZM25.0029 28.4609V30.7168H19.7686V31.8398H25.1885V32.4746H18.9971V30.1113H24.2217V29.0859H18.9775V28.4609H25.0029ZM25.9697 33.3926V34.0078H22.3564V36.8105H21.5947V34.0078H18.0205V33.3926H25.9697ZM33.7041 32.8066V33.4316H27.6982V28.8613H33.6064V29.5059H28.4795V30.7949H33.4209V31.4102H28.4795V32.8066H33.7041ZM34.6221 35.0234V35.6582H26.6729V35.0234H34.6221Z" fill="#8691AA"/>
</svg>
