<svg width="45" height="44" viewBox="0 0 45 44" fill="none" xmlns="http://www.w3.org/2000/svg">
<path d="M21.5 18H26.5C26.5 18 30.5 18 30.5 15C30.5 12 26.5 11.9999 26.5 11.9999H18.5C18.5 11.9999 14.5 12.0005 14.5 9.00016C14.5 5.99984 18.5 6 18.5 6L23.5 6" stroke="#8691AA" stroke-width="3" stroke-linecap="round"/>
<path d="M29.5 2C31.2498 2.00018 32.4998 3.30399 32.5 5.09473C32.5 6.26079 31.7543 7.33192 31.0537 8.08691C30.6986 8.46954 30.3434 8.78272 30.0781 9C29.9456 9.10848 29.8349 9.19375 29.7568 9.25195C29.7178 9.28104 29.6864 9.30403 29.665 9.31934C29.6546 9.32682 29.6464 9.33289 29.6406 9.33691C29.6378 9.33887 29.6354 9.34071 29.6338 9.3418L29.6318 9.34277H29.6309V9.34375C29.5563 9.39508 29.4584 9.39732 29.3809 9.35059L29.5 9.15332L29.3799 9.35059L29.377 9.34961C29.3753 9.34856 29.3729 9.34644 29.3701 9.34473C29.3643 9.34112 29.3561 9.33567 29.3457 9.3291C29.324 9.31541 29.2921 9.2956 29.2529 9.26953C29.1741 9.21712 29.0622 9.13975 28.9287 9.04004C28.662 8.84075 28.306 8.54877 27.9492 8.17969C27.2415 7.44756 26.5 6.37736 26.5 5.09473C26.5002 3.30395 27.7501 2.00012 29.5 2ZM29.5 3.61523C28.8096 3.61523 28.25 4.17488 28.25 4.86523C28.25 5.55559 28.8096 6.11523 29.5 6.11523C30.1904 6.11523 30.75 5.55559 30.75 4.86523C30.75 4.17488 30.1904 3.61523 29.5 3.61523Z" fill="#22252F"/>
<path d="M15.5 14.5C17.2498 14.5002 18.4998 15.804 18.5 17.5947C18.5 18.7608 17.7543 19.8319 17.0537 20.5869C16.6986 20.9695 16.3434 21.2827 16.0781 21.5C15.9456 21.6085 15.8349 21.6938 15.7568 21.752C15.7178 21.781 15.6864 21.804 15.665 21.8193C15.6546 21.8268 15.6464 21.8329 15.6406 21.8369C15.6378 21.8389 15.6354 21.8407 15.6338 21.8418L15.6318 21.8428H15.6309V21.8438C15.5563 21.8951 15.4584 21.8973 15.3809 21.8506L15.5 21.6533L15.3799 21.8506L15.377 21.8496C15.3753 21.8486 15.3729 21.8464 15.3701 21.8447C15.3643 21.8411 15.3561 21.8357 15.3457 21.8291C15.324 21.8154 15.2921 21.7956 15.2529 21.7695C15.1741 21.7171 15.0622 21.6398 14.9287 21.54C14.662 21.3408 14.306 21.0488 13.9492 20.6797C13.2415 19.9476 12.5 18.8774 12.5 17.5947C12.5002 15.804 13.7501 14.5001 15.5 14.5ZM15.5 16.1152C14.8096 16.1152 14.25 16.6749 14.25 17.3652C14.25 18.0556 14.8096 18.6152 15.5 18.6152C16.1904 18.6152 16.75 18.0556 16.75 17.3652C16.75 16.6749 16.1904 16.1152 15.5 16.1152Z" fill="#22252F"/>
<path d="M12.6807 28.4805C12.6807 29.0322 13.0713 29.6768 13.8428 30.0527C14.6143 29.6768 14.9951 29.0469 14.9951 28.4805V28.1289H16.0986V28.4805C16.0986 29.252 16.5967 30.0039 17.71 30.3262L17.2021 31.127C16.3623 30.8682 15.8154 30.3408 15.5322 29.6914C15.2295 30.292 14.6875 30.8047 13.8428 31.0586C12.998 30.8047 12.4609 30.2871 12.1631 29.6914C11.8652 30.3262 11.3184 30.8584 10.4834 31.127L9.98535 30.3262C11.0791 29.9844 11.6064 29.1934 11.6064 28.4805V28.1289H12.6807V28.4805ZM14.3896 31.0977V31.7227H17.876V32.582H9.8291V31.7227H13.3057V31.0977H14.3896ZM16.8701 33.1191V35.2969H11.8506V35.9609H17.1143V36.791H10.7861V34.5254H15.8057V33.9395H10.7764V33.1191H16.8701ZM25.5908 28.3438V30.8535H20.5225V31.7324H25.7861V32.6016H19.4287V30.0332H24.4775V29.2227H19.4092V28.3438H25.5908ZM26.5283 33.3535V34.2227H23.0225V36.8789H21.9385V34.2227H18.4619V33.3535H26.5283ZM34.292 32.6699V33.5293H28.1006V28.7344H34.2139V29.6133H29.2041V30.6777H34.0088V31.5273H29.2041V32.6699H34.292ZM35.1807 34.9062V35.7949H27.1143V34.9062H35.1807Z" fill="#343846"/>
</svg>
